<svg width="682" height="614" viewBox="0 0 682 614" fill="none" xmlns="http://www.w3.org/2000/svg">
  <path d="M582.013 432.573c10.754-1.522 21.584-6.119 32.466-15.704 24.268-21.373 19.638-57.973 1.431-79.763-18.611-22.203-56.388-35.345-101.621.711-76.614 61.071-108.493 38.815-108.804 38.569l-5.564 7.19c1.477 1.171 37.014 27.531 120.092-38.663 40.082-31.891 72.243-21.969 88.98-1.985 15.466 18.508 19.686 49.385-.462 67.112-25.006 22.001-49.922 13.551-76.299 4.619-10.611-3.604-21.582-7.322-32.638-8.999-39.483-5.988-64.105 17.56-65.136 18.561l6.356 6.497a71.598 71.598 0 0 1 57.418-16.062c10.25 1.543 20.845 5.135 31.092 8.61 17.181 5.861 34.833 11.834 52.689 9.307Z" fill="#CAB3DA"/>
  <path fill-rule="evenodd" clip-rule="evenodd" d="M525.546 517.354s22.627 20.254 39.771 10.362l-39.771-10.362Z" fill="#CAB3DA"/>
  <path fill-rule="evenodd" clip-rule="evenodd" d="M212.762 349.467c8.982 16.667 52.068 32.41 73.976 26.053.978-.279 1.94-.614 2.88-1.001 12.927-5.473 20.84-20.736 24.734-30.657a79.313 79.313 0 0 0 3.033-8.984l-5.615-44.74s-.567.191-1.532.59a78.16 78.16 0 0 0-16.212 8.973c-8.325 6.201-38.376 16.844-54.913 15.528-16.537-1.316-23.008-5.602-26.783-4.488-3.775 1.114-5.899 8.038-5.899 8.038s-3.137 13.125 6.331 30.688Z" fill="url(#a)"/>
  <path fill-rule="evenodd" clip-rule="evenodd" d="M206.431 318.779s6.409-3.46 9.71.364c3.301 3.824 10.489 28.872-3.368 30.309-13.857 1.437-6.329-30.675-6.329-30.675l-.013.002Z" fill="#684D73"/>
  <path fill-rule="evenodd" clip-rule="evenodd" d="M210.151 319.812s4.09 13.398-2.101 26.1c0 0-9.084-15.921 2.101-26.1Z" fill="#53345F"/>
  <path fill-rule="evenodd" clip-rule="evenodd" d="M177.826 323.256a45.706 45.706 0 0 0 20.242 16.273 50.2 50.2 0 0 0 11.199 3.479 26.928 26.928 0 0 0 1.893-17.82s-.94-1.578-2.491-3.856c-3.471-5.028-9.626-13.512-14.455-16.043l.57 6.363s-6.379-8.218-20.122-5.679c.014-.002-6.491 2.685 3.164 17.283Z" fill="#D9D9D9"/>
  <path d="M256.825 313.632s9.576 10.235 13.826 33.919c4.249 23.683-11.773 27.566-11.773 27.566s10.084 2.422 17.041 1.851c0 0 37.241-15.013-4.463-67.201l-14.631 3.865Z" fill="url(#b)"/>
  <path style="mix-blend-mode:multiply" fill-rule="evenodd" clip-rule="evenodd" d="M314.352 343.862c1.062 3.41 2.36 6.924 3.737 10.607l10.216-26.283-13.953-38.717-4.026.805c-.048.145-.07.286-.116.444a78.18 78.18 0 0 0-16.212 8.973s34.116 25.196-4.393 74.733c12.941-5.378 20.853-20.641 24.747-30.562Z" fill="url(#c)"/>
  <path fill-rule="evenodd" clip-rule="evenodd" d="M364.587 554.764s5.754-15.592 43.541-17.202c.005.041-12.025 20.33-43.541 17.202Zm164.189-77.565s-23.97 3.393-32.477 32.194c0 0 11.011 2.829 22.943-6.656 11.931-9.485 9.534-25.538 9.534-25.538Z" fill="#311745"/>
  <path fill-rule="evenodd" clip-rule="evenodd" d="m392.296 559.853 16.421-8.865s-.904-4.44-2.089-11.543c-3.038-17.95-7.926-52.775-4.918-75.195l-68.904-29.792s.319 4.301.905 11.076c1.805 19.669.219 60.033 6.663 75.044 8.685 20.117 51.922 39.275 51.922 39.275Z" fill="url(#d)"/>
  <path fill-rule="evenodd" clip-rule="evenodd" d="M332.802 434.431a120.434 120.434 0 0 0 66.038 30.598l2.87-.779 15.329-4.198c-.004-.05-.011-.1-.021-.149l-.044-.311a1.56 1.56 0 0 1-.035-.244 2.503 2.503 0 0 1-.044-.311c-.849-6.972-4.875-50.916 21.574-93.819a113.01 113.01 0 0 1-10.707-10.724 223.825 223.825 0 0 0-2.117-2.377c-3.413-3.836-7.547-8.673-12.443-14.796-10.703-13.222-28.559-34.676-40.856-49.41-3.69-4.432-6.894-8.255-9.258-11.108-.881-1.062-1.663-2-2.305-2.737l-1.962-2.358s-29.689 19.919-48.007 16.648c0 0-.202.622-.499 1.837-.047.158-.068.299-.117.444-1.472 6.362-4.507 25.475 4.11 53.107 1.076 3.408 2.36 6.924 3.748 10.591a112.465 112.465 0 0 0 1.603 3.913 235.53 235.53 0 0 0 9.569 65.746 190.212 190.212 0 0 0 3.574 10.437Z" fill="#CAB3DA"/>
  <path fill-rule="evenodd" clip-rule="evenodd" d="M375.717 315.913c.742.958 1.541 1.921 2.359 2.923 12.892 15.533 31.457 29.905 49.724 35.736 11.196 3.548 22.237 3.862 31.786-.719 21.326-10.277 28.205-30.113 29.791-35.87.037-.184.085-.366.143-.545.025-.16.063-.317.113-.471.097-.387.138-.585.138-.585s6.524-5.96 2.533-13.785c-3.991-7.824-13.132-18.493-13.132-18.493l-4.396.429s-3.489-5.15-9.491-4.176c-6.003.974-18.105 8.082-37.131 6.636-16.734-1.247-42.471-7.607-51.187-10.692a15.178 15.178 0 0 1-2.651-1.087 26.808 26.808 0 0 0-9.503-2.891l-2.391 1.138-1.578.748-4.846 2.314s-1.35 12.982 19.719 39.39Z" fill="url(#e)"/>
  <path fill-rule="evenodd" clip-rule="evenodd" d="M417.038 460.052s39.858 25.983 49.554 33.166c9.695 7.182 36.457 16.102 49.604 16.076.32.011.642.002.962-.025 12.354-.452 16.249-9.2 16.249-9.2s-.673-2.416-1.75-6.223c-1.449-5.066-3.613-12.556-5.964-20.005-3.087-9.912-6.484-19.78-8.763-23.597-3.877-6.53-44.855-49.782-65.983-71.932-7.481-7.813-12.465-13-12.465-13-30.762 30.958-22.911 86.033-21.576 93.806.008.105.023.209.044.311.006.082.018.164.035.244l.038.27a.985.985 0 0 1 .015.109Z" fill="url(#f)"/>
  <path fill-rule="evenodd" clip-rule="evenodd" d="M353.272 277.64s-14.401 14.457-20.642 17.355c-6.24 2.898-21.77-6.508-21.77-6.508s15.639-.158 42.412-10.847Zm11.526-5.329s7.163 52.648 53.527 79.463c0 0-41.119-17.54-65.053-74.134l11.526-5.329Z" fill="#53345F"/>
  <path fill-rule="evenodd" clip-rule="evenodd" d="M314.346 289.525s-1.785 40.613 5.349 68.883c0 0-15.659-30.209-13.268-65.954l4.433-3.967 3.486 1.038Zm131.8 83.727s-21.426 20.584-22.635 91.002l-6.432-4.208s-12.947-66.414 21.426-94.764l7.641 7.97Zm-116.847 50.953s36.495 38.299 72.396 40.033l-.472 4.372s-36.03 3.196-67.772-26.282l-4.152-18.123Z" fill="#53345F"/>
  <path fill-rule="evenodd" clip-rule="evenodd" d="M489.781 316.352s6.525-5.96 2.533-13.784c-3.991-7.824-13.132-18.493-13.132-18.493l-4.396.429s-11.674 22.612 14.995 31.848Z" fill="#684D73"/>
  <path fill-rule="evenodd" clip-rule="evenodd" d="M490.823 308.699s-16.281-11.494-11.687-24.563c.046-.061 16.32 18.305 11.687 24.563Z" fill="#53345F"/>
  <path fill-rule="evenodd" clip-rule="evenodd" d="M479.245 293.297s-2.487-11.819 6.12-19.053l2.653 4.896s9.735-14.763 23.28-10.995c0 0 5.058 23.444-22.674 38.864a25.355 25.355 0 0 1-9.379-13.712Z" fill="#D9D9D9"/>
  <path d="M504.774 435.724s8.001 15.288-9.708 34.353c-17.709 19.064-37.238 16.986-37.238 16.986s10.726 8.223 17.809 11.277c7.083 3.054 38.159-14.674 46.004-36.938 0 0-2.471-8.688-5.791-12.744-3.32-4.055-11.076-12.934-11.076-12.934Z" fill="url(#g)"/>
  <path d="M401.07 491.702s-11.024 16.38-26.575 26.709a45.43 45.43 0 0 1-31.574 7.091s7.434 9.917 15.467 14.714c0 0 20.018-4.214 29.455-12.214 9.437-8.001 14.419-20.669 14.419-20.669l-1.192-15.631Z" fill="url(#h)"/>
  <path d="M423.203 286.521s-22.239 41.452 21.737 70.702a43.863 43.863 0 0 1-15.948-2.323c-12.035-3.816-48.636-49.689-19.203-70.634l13.414 2.255Z" fill="url(#i)"/>
  <path d="m401.449 464.549.499-.567c-.299-.262-29.79-26.609-42.019-49.246-10.59-19.64-12.88-30.851-16.045-46.381-1.19-5.875-2.546-12.527-4.541-20.386a357.29 357.29 0 0 1-9.075-51.439l-.758.108a360.405 360.405 0 0 0 9.106 51.558c1.978 7.833 3.334 14.486 4.536 20.345 3.174 15.598 5.466 26.823 16.116 46.592 12.292 22.697 41.81 49.137 42.181 49.416Z" fill="#53345F"/>
  <path style="mix-blend-mode:multiply" fill-rule="evenodd" clip-rule="evenodd" d="m405.296 540.171 1.278-.719c-3.038-17.949-7.926-52.774-4.918-75.195l15.383-4.205s39.857 25.983 49.567 33.164c9.709 7.18 36.444 16.104 49.59 16.078.321.006.641-.008.96-.039l14.492-15.477c-1.433-5.054-3.611-12.542-5.949-19.993l-1.571-.178s-13.969 22.675-34.017 24.34c-20.047 1.665-60.246-39.89-61.025-48.514-2.894-32.238 12.803-58.786 21.858-71.148l-12.467-13.013a113.246 113.246 0 0 1-10.708-10.723c11.196 3.548 22.238 3.861 31.798-.735 21.313-10.275 28.193-30.097 29.777-35.868-1.892 6.132-10.799 28.794-43.617 35.771a35.996 35.996 0 0 1-20.041-1.606c-28.498-10.164-49.879-50.961-52.508-59.985a20.726 20.726 0 0 1-.783-4.167c-.618-8.067 4.541-11.682 4.541-11.682a16.957 16.957 0 0 1-2.62-1.064 26.85 26.85 0 0 0-9.502-2.891l-2.392 1.139c.192.87.417 2.066.728 3.485a211.801 211.801 0 0 0 12.584 38.992 118.207 118.207 0 0 0 16.398 27.525c22.434 27.084 29.027 31.16 29.027 31.16s-6.53 51.343-18.211 65.525c-11.68 14.183-51.901.448-62.764-7.77-5.17-3.863-8.64-6.545-10.91-8.252a175.598 175.598 0 0 0 3.526 10.291s.319 4.301.906 11.076c10.892 8.71 47.898 39.016 56.04 52.283 9.554 15.633 15.55 42.395 15.55 42.395Z" fill="url(#j)"/>
  <path fill-rule="evenodd" clip-rule="evenodd" d="M364.796 272.297s-2.706 29.622-26.602 50.598c-23.896 20.975-39.055-26.65-39.055-26.65l7.287-3.791 3.935-2.13 54.435-18.027Z" fill="#53345F" style="mix-blend-mode:multiply" opacity=".5"/>
  <path fill-rule="evenodd" clip-rule="evenodd" d="M224.484 267.93c.235.297.455.584.715.864 3.301 3.824 9.015 7.734 16.243 11.127 0 0 .431.215 1.249.54a115.982 115.982 0 0 0 50.268 9.65c30.015-1.145 72.936-11.705 97.388-36.457 24.452-24.752 25.037-84.954 14.161-102.125a171.567 171.567 0 0 0-12.274-17.208c-14.4-17.707-37.886-38.377-71.769-40.287-25.608-1.453-58.176 7.393-82.07 19.22a119.424 119.424 0 0 0-19.33 11.706 53.63 53.63 0 0 0-8.823 8.244l-.908 1.191a20.67 20.67 0 0 0-1.639 2.454c-25.188 44.215.734 110.365 16.789 131.081Z" fill="url(#k)"/>
  <path d="M227.891 262.949c.231.271.422.547.665.803 7.407 5.436 32.109 18.815 68.07 4.604 44.222-17.464 44.36-57.816 44.36-57.816l8.72-2.835a177.769 177.769 0 0 1-2.273-16.057c-2.641-27.623 3-41.972 2.135-45.837-1.012-4.617-15.841-29.245-50.716-35.14-23.11-3.89-43.656 1.378-57.918 7.26a110.738 110.738 0 0 0-18.122 10.982 48.861 48.861 0 0 0-8.275 7.726l-.85 1.114a18.138 18.138 0 0 0-1.535 2.315c-9.816 17.216-11.351 37.951-8.734 57.712 3.679 27.835 15.659 53.791 24.473 65.169Z" fill="url(#l)"/>
  <path style="mix-blend-mode:multiply" fill-rule="evenodd" clip-rule="evenodd" d="M242.692 280.461a115.98 115.98 0 0 0 50.267 9.65c30.015-1.145 72.937-11.705 97.388-36.457 24.452-24.752 25.037-84.954 14.162-102.125a171.567 171.567 0 0 0-12.274-17.208c-4.606-3.294-9.804-4.821-15.634-2.727-21.388 7.692-14.774 80.246-14.774 80.246l-10.903.963s.227 42.246-40.997 63.439c-36.011 18.537-61.486 6.524-67.235 4.219Z" fill="url(#m)"/>
  <path fill-rule="evenodd" clip-rule="evenodd" d="M400.449 238.95c-9.05 11.119-28.873 10.476-37.222-25.791-8.348-36.267 6.299-75.402 6.299-75.402-29.835 8.362-15.17 71.318-15.17 71.318 1.033 2.613 2.023 5.026 3.046 7.282l.104.247c21.387 47.861 41.244 24.477 42.943 22.346Z" fill="url(#n)"/>
  <path fill-rule="evenodd" clip-rule="evenodd" d="M406.915 156.542c-5.215-11.984-14.427-19.166-21.543-17.772-7.116 1.394-20.877 36.554-10.765 72.116 10.111 35.562 31.197 20.076 33.528 5.547l1.471-7.935s-13.778 25.78-26.579 5.142c-14.617-23.526.831-59.243 12.34-56.705 11.508 2.538 15.663 22.923 15.663 22.923s-.643-15.363-4.115-23.316Z" fill="#53345F"/>
  <path fill-rule="evenodd" clip-rule="evenodd" d="m413.506 554.504-3.362-4.257-1.943-12.654s-24.366 16.392-43.555 17.205a51.15 51.15 0 0 0 26.107 7.991s-13.755 9.371-10.475 25.133l33.228-33.418Zm82.881-45.165 26.588 3.301 2.581 4.781s17.713 14.299 39.769 10.349c0 0-6.502-18.052-29.183-23.976l-7.347-26.557a46.208 46.208 0 0 1-9.381 21.46c-7.814 9.813-21.792 10.591-23.027 10.642Z" fill="#D9D9D9"/>
  <path fill-rule="evenodd" clip-rule="evenodd" d="m413.506 554.504 2.935 1.82-34.348 33.798-1.862-2.234 33.275-33.384Z" fill="#CAB3DA"/>
  <path style="mix-blend-mode:multiply" fill-rule="evenodd" clip-rule="evenodd" d="M364.587 554.765a51.143 51.143 0 0 0 26.106 7.991s15.53-7.262 22.813-8.252l-3.362-4.257-1.943-12.654s-24.422 16.387-43.614 17.172Z" fill="url(#o)"/>
  <path style="mix-blend-mode:multiply" fill-rule="evenodd" clip-rule="evenodd" d="m496.388 509.339 26.587 3.301a33.637 33.637 0 0 0 13.167-8.846l-7.347-26.557a46.216 46.216 0 0 1-9.38 21.46c-7.815 9.813-21.793 10.591-23.027 10.642Z" fill="url(#p)"/>
  <path d="M333.909 147.973s-1.91-10.769-3.558-13.833a46.215 46.215 0 0 0-16.976-5.876l-3.249 20.136s18.477-1.166 23.783-.427Z" fill="#fff"/>
  <path d="M227.967 263.587c.218.272.422.547.666.802 7.393 5.439 32.064 18.794 67.987 4.603 44.167-17.457 44.259-57.747 44.259-57.747l8.692-2.831a188.204 188.204 0 0 1-2.271-16.043s-86.1-61.206-143.776 6.057c3.668 27.864 15.632 53.794 24.443 65.159Z" fill="url(#q)"/>
  <path d="M334.393 219.035s-.851 9.586-4.171 15.768l-5.824-2.156s2.736-8.942 3.71-14.241l6.285.629Z" fill="#fff"/>
  <path style="mix-blend-mode:multiply" fill-rule="evenodd" clip-rule="evenodd" d="M508.768 286.137s-7.558 11.143-16.782 12.945c-9.224 1.803-12.976-7.449-12.976-7.449s.055 7.995 9.56 15.384c0 0 15.757-8.385 20.198-20.88Z" fill="url(#r)"/>
  <path style="mix-blend-mode:multiply" fill-rule="evenodd" clip-rule="evenodd" d="M198.081 339.527a50.224 50.224 0 0 0 11.2 3.479 26.928 26.928 0 0 0 1.893-17.82s-.941-1.578-2.491-3.856c0 0 1.821 9.94-10.602 18.197Z" fill="url(#s)"/>
  <path fill-rule="evenodd" clip-rule="evenodd" d="M347.918 335.151a14.844 14.844 0 0 0 8.837 7.19 14.86 14.86 0 0 0 11.33-1.187 14.823 14.823 0 0 0 7.196-8.835 14.826 14.826 0 0 0-1.192-11.332 14.856 14.856 0 0 0-8.837-7.19 14.856 14.856 0 0 0-11.33 1.186 14.844 14.844 0 0 0-7.19 8.837 14.86 14.86 0 0 0 1.186 11.331Z" fill="#684D73"/>
  <path fill-rule="evenodd" clip-rule="evenodd" d="M352.777 332.531a9.315 9.315 0 0 0 17.114-1.809 9.305 9.305 0 0 0-.753-7.089 9.32 9.32 0 0 0-12.629-3.731 9.317 9.317 0 0 0-3.732 12.629Z" fill="url(#t)"/>
  <path fill-rule="evenodd" clip-rule="evenodd" d="M403.726 283.248s-11.54 17.419-24.238-6.104c0 0 17.532 4.639 24.238 6.104Z" fill="#684D73"/>
  <path d="M371.19 487.074a221.269 221.269 0 0 0 29.709-6.524l-.227-.727c-.489.152-48.9 14.635-65.206 3.546l-.422.625c7.857 5.401 22.619 4.994 36.146 3.08Zm66.32-12.245.757-.107a87.45 87.45 0 0 1-1.301-26.929c2.563-22.937 27.811-54.439 28.057-54.75l-.593-.482c-.245.311-25.635 31.985-28.221 55.146a88.573 88.573 0 0 0 1.301 27.122Zm40.295-135.27.596-.471c-31.844-40.53-13.037-58.273-12.853-58.437l-.494-.565c-.209.181-5.045 4.619-5.907 14.22-.85 8.814 1.814 23.835 18.658 45.253Zm-236.346 30.352c14.534-29.116-17.596-57.146-17.911-57.418l-.499.567c.316.286 32.006 27.937 17.74 56.504l.67.347Z" fill="#53345F"/>
  <path d="M378.113 368.808a39.61 39.61 0 0 0 6.057 8.084l5.838-3.986a17.762 17.762 0 0 0-7.38-7.097l-4.515 2.999Zm74.419-81.554a15.42 15.42 0 0 1-7.161 1.468l-2.145 3.561s5.751 2.318 9.098-1.137l.208-3.892Zm39.109 153.944a21.17 21.17 0 0 1 7.18 7.153l-3.723 4.404-6.492-7.36 3.035-4.197ZM213.422 311.042a12.103 12.103 0 0 1 5.964 4.51l4.877.234a18.78 18.78 0 0 0-3.428-2.964c-1.957-1.255-7.413-1.78-7.413-1.78ZM343.913 496.84s-1.045 12.112.992 17.536l-5.034.602a36.005 36.005 0 0 1-1.682-16.955l5.724-1.183Zm-26.939-389.548s-29.569-6.329-47.441-3.137c0 0 62.321-17.487 47.441 3.137Zm45.737 57.577-11.044-1.307-.9 11.967 10.522.345 1.422-11.005Z" fill="#fff"/>
  <g clip-path="url(#u)"/>
  <defs>
    <linearGradient id="b" x1="291.577" y1="337.249" x2="250.117" y2="343.2" gradientUnits="userSpaceOnUse">
      <stop stop-color="#AA367C"/>
      <stop offset="1" stop-color="#4A2FBD"/>
    </linearGradient>
    <linearGradient id="c" x1="329.052" y1="316.685" x2="274.373" y2="346.197" gradientUnits="userSpaceOnUse">
      <stop stop-color="#9579A7"/>
      <stop offset="1" stop-color="#fff"/>
    </linearGradient>
    <linearGradient id="g" x1="525.451" y1="459.275" x2="447.527" y2="470.638" gradientUnits="userSpaceOnUse">
      <stop stop-color="#AA367C"/>
      <stop offset="1" stop-color="#4A2FBD"/>
    </linearGradient>
    <linearGradient id="h" x1="407.466" y1="509.787" x2="334.769" y2="520.482" gradientUnits="userSpaceOnUse">
      <stop stop-color="#AA367C"/>
      <stop offset="1" stop-color="#4A2FBD"/>
    </linearGradient>
    <linearGradient id="i" x1="441.315" y1="314.65" x2="395.787" y2="321.181" gradientUnits="userSpaceOnUse">
      <stop stop-color="#AA367C"/>
      <stop offset="1" stop-color="#4A2FBD"/>
    </linearGradient>
    <linearGradient id="j" x1="508.892" y1="353.989" x2="335.02" y2="447.833" gradientUnits="userSpaceOnUse">
      <stop stop-color="#fff"/>
      <stop offset="1" stop-color="#9579A7"/>
    </linearGradient>
    <linearGradient id="k" x1="351.441" y1="279.093" x2="256.552" y2="103.285" gradientUnits="userSpaceOnUse">
      <stop stop-color="#D1BDE5"/>
      <stop offset="1" stop-color="#fff"/>
    </linearGradient>
    <linearGradient id="l" x1="362.453" y1="170.661" x2="185.061" y2="196.392" gradientUnits="userSpaceOnUse">
      <stop stop-color="#AA367C"/>
      <stop offset="1" stop-color="#4A2FBD"/>
    </linearGradient>
    <linearGradient id="m" x1="417.902" y1="176.17" x2="238.643" y2="272.921" gradientUnits="userSpaceOnUse">
      <stop stop-color="#fff"/>
      <stop offset="1" stop-color="#9579A7"/>
    </linearGradient>
    <linearGradient id="n" x1="398.339" y1="241.982" x2="347.985" y2="148.685" gradientUnits="userSpaceOnUse">
      <stop stop-color="#D1BDE5"/>
      <stop offset="1" stop-color="#F4DBEE"/>
    </linearGradient>
    <linearGradient id="o" x1="410.965" y1="542.749" x2="370.063" y2="564.825" gradientUnits="userSpaceOnUse">
      <stop stop-color="#fff"/>
      <stop offset="1" stop-color="#9579A7"/>
    </linearGradient>
    <linearGradient id="p" x1="535.63" y1="489.793" x2="497.11" y2="510.584" gradientUnits="userSpaceOnUse">
      <stop stop-color="#fff"/>
      <stop offset="1" stop-color="#9579A7"/>
    </linearGradient>
    <linearGradient id="q" x1="357.554" y1="202.526" x2="190.46" y2="227.008" gradientUnits="userSpaceOnUse">
      <stop stop-color="#5A30B2"/>
      <stop offset="1" stop-color="#AA367C"/>
      <stop offset="1" stop-color="#4A2FBD"/>
    </linearGradient>
    <linearGradient id="r" x1="508.65" y1="285.856" x2="482.104" y2="300.184" gradientUnits="userSpaceOnUse">
      <stop stop-color="#fff"/>
      <stop offset="1" stop-color="#9579A7"/>
    </linearGradient>
    <linearGradient id="s" x1="213.606" y1="329.625" x2="197.472" y2="338.333" gradientUnits="userSpaceOnUse">
      <stop stop-color="#9579A7"/>
      <stop offset="1" stop-color="#fff"/>
    </linearGradient>
    <linearGradient id="t" x1="371.166" y1="325.643" x2="349.432" y2="328.801" gradientUnits="userSpaceOnUse">
      <stop stop-color="#AA367C"/>
      <stop offset="1" stop-color="#4A2FBD"/>
    </linearGradient>
    <radialGradient id="a" cx="0" cy="0" r="1" gradientUnits="userSpaceOnUse" gradientTransform="rotate(151.643 92.606 200.37) scale(52.3805)">
      <stop stop-color="#F4DBEE"/>
      <stop offset="1" stop-color="#D1BDE5"/>
    </radialGradient>
    <radialGradient id="d" cx="0" cy="0" r="1" gradientUnits="userSpaceOnUse" gradientTransform="rotate(151.643 103.921 294.374) scale(55.8371)">
      <stop stop-color="#F4F1FF"/>
      <stop offset="1" stop-color="#D1BDE5"/>
    </radialGradient>
    <radialGradient id="e" cx="0" cy="0" r="1" gradientUnits="userSpaceOnUse" gradientTransform="rotate(151.643 176.46 205.95) scale(57.1759)">
      <stop stop-color="#F4DBEE"/>
      <stop offset="1" stop-color="#D1BDE5"/>
    </radialGradient>
    <radialGradient id="f" cx="0" cy="0" r="1" gradientUnits="userSpaceOnUse" gradientTransform="rotate(151.643 174.846 281.826) scale(67.3269)">
      <stop stop-color="#F4F1FF"/>
      <stop offset="1" stop-color="#D1BDE5"/>
    </radialGradient>
    <clipPath id="u">
      <path fill="#fff" d="M521 73.112 545.826 27l135.54 72.974-24.827 46.112z"/>
    </clipPath>
  </defs>
</svg>
