<?xml version="1.0" standalone="no"?>
<!DOCTYPE svg PUBLIC "-//W3C//DTD SVG 20010904//EN"
 "http://www.w3.org/TR/2001/REC-SVG-20010904/DTD/svg10.dtd">
<svg version="1.0" xmlns="http://www.w3.org/2000/svg"
 width="512.000000pt" height="512.000000pt" viewBox="0 0 512.000000 512.000000"
 preserveAspectRatio="xMidYMid meet">

<g transform="translate(0.000000,512.000000) scale(0.100000,-0.100000)"
fill="#242424" stroke="none">
<path d="M264 4615 c-120 -38 -211 -125 -244 -233 -20 -66 -20 -86 -18 -1452
l3 -1385 27 -58 c36 -75 112 -149 185 -179 l58 -23 763 -3 c665 -2 762 -4 762
-17 0 -9 -9 -57 -21 -108 -11 -50 -36 -168 -55 -262 -19 -93 -37 -178 -40
-187 -4 -15 -17 -18 -75 -18 -65 0 -73 -2 -100 -29 -22 -23 -29 -39 -29 -68 1
-41 11 -59 50 -86 23 -16 88 -17 836 -17 l812 0 30 28 c40 38 48 71 27 115
-21 45 -50 57 -144 57 l-77 0 -28 128 c-46 216 -96 455 -96 459 0 1 191 3 424
3 l425 0 3 -302 c3 -290 4 -305 25 -344 27 -51 82 -100 140 -125 42 -18 75
-19 521 -19 458 0 479 1 522 21 69 31 108 66 138 122 l27 52 3 1064 c3 1219 8
1139 -81 1226 -63 61 -104 75 -226 75 l-91 0 0 645 c0 568 -2 650 -16 692 -36
105 -117 185 -228 223 -59 20 -74 20 -2115 19 -1641 -1 -2064 -4 -2097 -14z
m4176 -207 c52 -27 77 -66 86 -131 l7 -47 -2167 0 -2166 0 0 43 c0 59 29 107
80 134 l43 23 2036 0 2037 0 44 -22z m90 -868 l0 -490 -299 0 -299 0 -53 -28
c-60 -31 -113 -93 -129 -150 -6 -22 -10 -187 -10 -419 l0 -383 -1770 0 -1770
0 -2 980 -3 980 2168 0 2167 0 0 -490z m380 -709 c5 -11 10 -54 10 -95 l0 -76
-490 0 -490 0 0 83 c0 51 5 88 12 95 9 9 129 12 480 12 452 0 468 -1 478 -19z
m10 -1055 c0 -614 -2 -684 -16 -690 -9 -3 -229 -6 -490 -6 l-474 0 0 690 0
690 490 0 490 0 0 -684z m-1180 -101 l0 -195 -1712 0 c-1611 0 -1715 1 -1748
18 -19 9 -45 32 -57 51 -21 31 -23 45 -23 177 l0 144 1770 0 1770 0 0 -195z
m-1050 -404 c0 -5 27 -134 60 -287 33 -153 60 -281 60 -286 0 -4 -210 -8 -466
-8 -439 0 -465 1 -460 18 3 9 31 136 61 282 31 146 58 271 60 278 3 9 81 12
345 12 192 0 340 -4 340 -9z m2230 -465 c0 -76 -2 -86 -22 -100 -20 -14 -81
-16 -468 -16 -387 0 -448 2 -468 16 -20 14 -22 24 -22 100 l0 84 490 0 490 0
0 -84z"/>
</g>
</svg>
