<svg width="682" height="614" viewBox="0 0 682 614" fill="none" xmlns="http://www.w3.org/2000/svg">
  <g clip-path="url(#a)" fill-rule="evenodd" clip-rule="evenodd">
    <path style="mix-blend-mode:screen" d="M552.013 275.985c0 152.404-123.596 275.946-276.019 275.946a274.695 274.695 0 0 1-117.31-26.134 274.877 274.877 0 0 1-20.588-10.768 275.89 275.89 0 0 1-70.847-58.621 272.626 272.626 0 0 1-20.43-26.674 272.822 272.822 0 0 1-22.329-40.065A274.718 274.718 0 0 1 .04 275.985a274.967 274.967 0 0 1 24.53-113.881 267.632 267.632 0 0 1 17.253-32.144 274.891 274.891 0 0 1 50.509-59.886A274.735 274.735 0 0 1 275.994.04a276.302 276.302 0 0 1 65.482 7.828 274.182 274.182 0 0 1 81.339 34.437c4.824 3.044 9.543 6.208 14.13 9.542a255.302 255.302 0 0 1 11.322 8.606 274.874 274.874 0 0 1 48.282 49.58A273.937 273.937 0 0 1 550.3 245.396a268.376 268.376 0 0 1 1.713 30.589Z" fill="url(#b)"/>
    <path d="M532.044 275.985c0 141.387-114.673 255.993-256.051 255.993a254.646 254.646 0 0 1-108.86-24.263c-6.511-3.044-12.878-6.392-19.099-9.977a256.52 256.52 0 0 1-65.733-54.377 251.766 251.766 0 0 1-18.94-24.751 254.663 254.663 0 0 1-20.747-37.165 254.83 254.83 0 0 1-22.671-105.433 254.98 254.98 0 0 1 22.75-105.645 247.249 247.249 0 0 1 16.015-29.824 254.914 254.914 0 0 1 46.871-55.55 254.905 254.905 0 0 1 170.375-64.974 256.243 256.243 0 0 1 60.75 7.275 254.039 254.039 0 0 1 75.447 31.933 250.006 250.006 0 0 1 13.102 8.857c3.585 2.556 7.091 5.271 10.545 7.986a255.692 255.692 0 0 1 44.749 46.061A253.91 253.91 0 0 1 530.41 247.69a251.662 251.662 0 0 1 1.634 28.295Z" fill="url(#c)"/>
    <g style="mix-blend-mode:multiply" opacity=".5" fill="#C4B0B8">
      <path d="M530.463 247.624a36.524 36.524 0 0 0-2.294 5.126 42.197 42.197 0 0 1-3.611 7.341 91.228 91.228 0 0 0-3.955 9.344c-2.979 6.893-5.167 14.379-7.645 21.469-2.754 7.908-5.351 15.815-8.738 23.459-1.516 3.466-3.731 6.59-5.273 9.977-1.542 3.387-3.058 6.708-4.943 9.989-4.666 8.013-8.884 16.185-13.826 24.066-8.884 14.194-19.574 26.806-29.934 39.919-5.272 6.59-11.415 12.349-17.412 18.306-6.775 6.695-12.733 14.194-19.771 20.744a134.947 134.947 0 0 1-17.293 14.497c-3.533 2.333-6.933 4.929-10.466 7.223-4.521 2.939-9.833 4.599-14.657 6.971-16.041 7.723-33.216 12.547-50.087 17.964-16.529 5.271-32.465 12.507-49.336 16.724-3.467.87-6.973 1.213-10.479 1.924-3.796.751-7.447 1.845-11.335 2.254-7.751.87-15.25 3.466-23.08 3.954-5.47.263-10.545-.791-15.896-1.055a169.891 169.891 0 0 0-20.536.896c-7.58.488-15.19.196-22.71-.869-6.512-3.045-12.878-6.392-19.099-9.977l.711.224c4.456 1.437 8.594 3.954 13.076 5.048 4.784 1.094 9.754 1.884 14.696 2.715a58.782 58.782 0 0 0 19.574.118c3.467-.566 6.973-.988 10.439-1.7 3.77-.791 7.566.185 11.336-.672 5.272-1.318 11.045-.264 16.383-.461 9.227-.303 18.23-3.69 27.127-5.496 9.872-1.99 19.244-5.575 29.301-6.774 5.733-.685 10.241-2.636 15.672-4.336 4.666-1.437 7.645-4.033 11.52-6.972 7.46-5.575 14.999-11.294 23.725-14.906a139.858 139.858 0 0 1 27.008-7.907 47.972 47.972 0 0 0 21.616-10.28c2.571-2.306 5.009-4.718 7.54-7.051a111.358 111.358 0 0 0 9.226-8.579c3.164-3.625 6.775-6.933 9.899-10.544 3.467-4.019 6.301-8.54 9.728-12.573 5.456-6.444 13.787-9.792 19.164-16.342 1.134-1.318 1.885-3.018 3.058-4.336 1.173-1.318 2.518-2.069 3.269-3.835.91-2.148 3.137-7.117 1.925-9.528-2.412-4.864-15.185 7.643-17.215 9.594-3.163 2.978-5.76 6.036-9.569 8.211a55.591 55.591 0 0 1-6.999 3.729c-4.073 1.661-8.778 1.845-13.075 2.755-11.942 2.557-24.108 3.954-36.155 5.838-16.318 2.517-32.807 5.944-48.862 9.858-15.026 3.664-29.907 7.908-44.933 11.453-7.988 1.924-15.975 3.954-23.989 5.693-9.793 2.188-19.402 5.193-29.235 7.078-16.199 2.938-32.491 6.523-49.007 6.971-12.956.343-25.794 1.015-38.764 1.015-17.465 0-36.195 1.766-53.33-2.333a4.528 4.528 0 0 1-.646-.184 251.766 251.766 0 0 1-18.94-24.751 87.781 87.781 0 0 0 19.586 6.142c4.903.87 10.097 1.99 14.156 4.929a29.476 29.476 0 0 0 8.476 4.784c11.151 3.585 21.089 3.361 32.253.079a473.47 473.47 0 0 0 12.43-3.875c3.044-1.028 5.839-2.833 8.883-3.663 8.634-2.254 17.557-3.875 26.257-5.865 4.138-.949 8.475-1.74 12.548-2.979 4.587-1.436 8.884-3.769 13.286-5.574 8.436-3.467 16.278-7.038 25.32-8.593 5.681-.936 12.272-1.648 17.478-4.284 1.687-.83 4.218-2.003 3.954-4.256-.303-2.794-3.954-2.043-5.957-1.701-5.839 1.015-11.784 1.542-17.584 3.084a156.153 156.153 0 0 1-31.304 4.824c-15.896 1.054-32.095 2.003-48.031 1.173-12.654-.646-25.386-1.779-38.04-1.661-12.245.119-24.147-.935-35.786-4.784-13.141-4.322-26.52-8.276-38.672-14.945a254.83 254.83 0 0 1-22.671-105.433 254.98 254.98 0 0 1 22.75-105.645c-1.7 4.679-3.124 9.463-5.088 13.97a69.62 69.62 0 0 0-6.208 27.676 79.594 79.594 0 0 1-.08 11.216c-.645 4.744-1.014 7.802.343 12.586 1.015 3.506 1.318 6.893 2.86 10.28a9.401 9.401 0 0 0 2.03 2.82 25.16 25.16 0 0 1 2.004 3.361c2.07 3.387 5.048 7.907 8.62 9.858a40.772 40.772 0 0 0 7.46 2.833c3.006.857 4.179 1.2 7.197.106a30.194 30.194 0 0 1 7.606-1.951c1.435.159 2.85.472 4.218.936 1.805.303 3.585.145 5.43.527 7.526 1.582 14.868 3.427 22.592 3.348 6.063-.066 12.021.949 18.163.949 7.381 0 14.684.224 21.986-.712 4.943-.646 10.254-1.885 15.184-2.188 4.93-.303 10.215.145 15.25.079 17.518-.276 35.589-4.494 50.812-13.337a110.088 110.088 0 0 1 25.888-11.071c11.678-3.36 23.606-6.668 35.588-8.935a140.405 140.405 0 0 0 32.227-10.398 87.384 87.384 0 0 0 12.996-7.578c3.77-2.557 7.909-4.508 11.52-7.183 10.545-7.802 19.771-16.949 28.998-26.253 5.272-5.272 10.624-10.543 16.133-15.591 4.548-4.151 9.372-5.997 15.211-7.42 9.306-2.227 14.499-12.691 19.508-20.19 6.327-9.45 11.573-20.296 11.863-31.934a66.616 66.616 0 0 0-1.095-14.312 23.98 23.98 0 0 0-1.766-6.142 21.729 21.729 0 0 1-1.845-3.769c-.264-1.12-.303-2.293-.527-3.308-.224-1.015-.752-2.043-.976-2.86-.527-2.188-1.621-5.206-1.476-7.617v-.145c3.585 2.556 7.091 5.271 10.545 7.986a16.486 16.486 0 0 1-.079 3.005c-.224 1.213-.646 2.227-.87 3.427-.303 1.779-.976 2.794-.936 4.744-.08 1.948.07 3.9.448 5.812 1.239 4.745 4.337 9.147 4.297 14.155a39.316 39.316 0 0 1-3.322 14.747c-1.805 4.521-3.756 8.698-5.944 13.034a50.096 50.096 0 0 1-5.009 8.132 58.835 58.835 0 0 0-5.272 7.38 67.924 67.924 0 0 0-3.058 6.405c-1.661 3.954-4.337 6.023-7.342 8.962-6.182 5.957-13.906 10.781-20.536 16.501a97.43 97.43 0 0 0-14.723 15.208c-1.884 2.636-11.52 10.135-8.923 14.089 1.16 1.74 4.824 1.173 6.472 1.173a26.948 26.948 0 0 0 10.966-2.451c9.372-4.257 18.717-9.305 28.589-12.244 4.442-1.318 9.227-2.03 13.405-3.954 5.07-2.36 9.979-5.05 14.697-8.052 3.73-2.307 5.945-5.272 8.739-8.593 1.582-1.885 3.796-2.939 5.536-4.665 2.03-2.043 3.308-4.415 5.575-6.181a70.584 70.584 0 0 0 14.381-15.512c3.664-5.272 5.008-11.862 6.59-17.858a23.298 23.298 0 0 0 1.054-4.745c.066-2.029 0-4.138 0-6.181v-.329a253.907 253.907 0 0 1 49.864 125.611Z" style="mix-blend-mode:multiply" opacity=".5"/>
      <path d="M413.773 80.788c-.976 5.8-1.503 11.519-2.636 17.318-1.134 5.799-1.424 12.243-3.77 17.594-3.954 9.225-5.193 19.466-11.441 27.597-2.636 3.466-4.719 7.196-8.106 10.095a28.99 28.99 0 0 1-4.06 2.228c-1.318.87-2.715 2.188-3.954 3.123-6.709 4.903-13.827 9.951-19.771 15.815-6.367 6.26-12.43 12.402-19.956 17.331-2.267 1.463-4.64 2.517-6.973 3.809a49.196 49.196 0 0 1-5.655 3.229 26.204 26.204 0 0 0-6.695 3.163 28.364 28.364 0 0 1-5.919 3.36c-3.611 1.424-7.117 3.124-10.729 4.521-1.661.672-3.4 1.054-5.088 1.647-4.784 1.819-8.29 1.661-14.498 2.148-1.951-.856-.29-.935 1.318-1.647a7.143 7.143 0 0 0 2.557-1.964 33.717 33.717 0 0 1 4.363-3.953c2.715-1.964 6.3-2.939 9.226-4.705 3.73-2.333 7.421-5.167 11.033-7.684 3.057-2.109 5.351-5.43 7.908-8.066 2.715-2.859 5.997-5.416 8.963-8.092 3.467-3.084 6.445-6.589 9.951-9.647a36.805 36.805 0 0 0 8.818-11.07c.976-1.806 2.558-3.124 3.573-4.969a46.443 46.443 0 0 0 2.86-5.192c.87-2.149 2.003-4.152 2.939-6.221 1.054-2.412 1.015-5.272 1.542-7.789a885.084 885.084 0 0 0 4.482-22.721 127.848 127.848 0 0 0 1.436-19.466c.224-6.18 1.964-12.203 1.991-18.45a15.103 15.103 0 0 0-.897-6.748c-1.318-2.94-2.794-5.496-3.848-8.553a49.603 49.603 0 0 0-17.135-23.604c-1.2-.87-5.009-3.163-8.779-5.918A254.047 254.047 0 0 1 412.27 59.24a50.298 50.298 0 0 1 1.503 21.548Z" style="mix-blend-mode:multiply" opacity=".5"/>
      <path d="M339.565 81.197c-.554 3.242-2.518 5.693-3.427 8.777a73.96 73.96 0 0 0-2.333 10.702c-.752 5.495-.264 10.952-.897 16.487a94.87 94.87 0 0 1-9.226 29.983c-4.6 9.37-12.469 17.053-21.09 22.865-8.883 6.063-18.756 10.689-28.47 15.17-5.536 2.53-11.375 3.584-17.03 5.733-4.745 1.766-9.411 3.795-14.13 5.64-4.718 1.845-8.963 5.008-13.629 6.524-2.899.936-5.76 1.911-8.659 2.965-4.983 1.78-9.504 4.415-14.354 6.485a123.326 123.326 0 0 1-21.248 6.971c-7.197 1.687-14.156.593-21.392-.303a174.34 174.34 0 0 1-18.124-2.636c-10.953-2.635-22.75-1.884-33.927-1.884-8.476 0-18.269.83-25.769-3.77-2.148-1.317-4.521-2.714-5.72-4.968-1.477-2.794-1.661-6.326-2.307-9.344-1.318-6.208-7.223-10.438-11.257-14.985-5.272-5.957-7.275-13.482-8.33-21.166a57.3 57.3 0 0 1 .462-19.927 254.934 254.934 0 0 1 46.871-55.523c-4.284 8.131-7.527 16.763-11.296 25.159-5.681 12.573-10.69 26.279-10.202 40.328.184 5.509.632 11.677 3.572 16.461 2.267 3.69 5.997 6.365 9.608 8.553 5.919 3.545 11.863 7.459 18.23 9.898 7.196 2.754 14.393 5.39 21.55 8.144 4.179 1.582 8.212 3.387 12.733 3.954 5.552.444 11.128.492 16.687.145 19.692-.527 37.882-9.753 56.414-15.327 5.958-1.806 12.139-2.636 18.005-4.587a76.914 76.914 0 0 0 10.255-4.678c8.238-4.257 17.24-7.46 24.964-12.771a106.376 106.376 0 0 0 20.72-18.859c4.6-5.509 6.67-11.005 8.924-17.779 4.442-13.337 6.142-26.174 7.341-40.078.528-5.904 2.571-11.176 3.955-16.909.896-3.796.369-8.171-2.637-10.925-6.102-5.378-15.105-8.738-22.908-10.544-4.745-1.133-9.226-2.636-14.156-2.636h-14.433c-4.824 0-9.148-1.014-13.787-1.014-5.457 0-10.545 1.541-15.936 1.963-5.644.4-11.263 1.104-16.832 2.109-6.59 1.16-12.956 3.796-19.362 5.72a110.6 110.6 0 0 0-35.391 17.857c-2.636 2.03-5.496 3.651-8.251 5.457-2.412 1.62-3.282 3.466-4.824 5.878a49.547 49.547 0 0 0-6.775 15.63 45.873 45.873 0 0 0-.87 12.244 96.87 96.87 0 0 1-1.621 16.526c-1.318 7.684-8.7 19.097-.567 25.238a10.548 10.548 0 0 0 7.908 1.845 90.049 90.049 0 0 0 12.272-2.859c11.269-3.163 23.053-6.933 34.731-8.409 3.546-.448 6.894-.184 10.4-1.08 2.188-.607 4.257-1.318 6.472-1.74 5.127-.936 10.254-4.257 14.274-7.604 1.846-1.542 3.362-3.427 5.273-4.969 2.557-2.109 5.641-3.506 8.093-5.772 3.506-3.229 6.854-6.735 10.136-10.201 6.735-7.077 11.599-15.934 17.32-23.723 3.624-4.942 7.644-10.319 8.633-16.46.751-4.745-5.048-7.275-8.594-8.778a23.727 23.727 0 0 0-12.205-1.7c-5.76 1.028-11.033 4.455-16.384 6.748-11.784 5.166-24.938 6.444-35.18 14.72-3.73 2.98-3.545 5.84-4.705 9.99a37.587 37.587 0 0 1-2.9 5.72c-1.542 2.86-1.74 3.572-.949 6.59s1.516 7.038 4.943 8.356c2.965 1.173 7.75.158 10.32-1.463a22.522 22.522 0 0 1 4.706-2.86c1.094-.422 3.77-1.661 4.824-1.318 1.885.712.488 1.871-.303 2.899a14.178 14.178 0 0 0-1.701 2.9 9.022 9.022 0 0 1-1.133 2.939c-3.005 3.426-8.989 5.153-13.181 6.589-3.651 1.318-6.393 2.781-10.386 2.821-5.391 0-3.203-3.954-3.955-7.908-1.054-5.008-6.827-6.879-7.46-12.085-.633-5.206.975-10.952 3.084-15.512a38.906 38.906 0 0 1 3.361-5.47c1.991-3.044 4.93-4.85 7.975-6.892 8.963-5.904 20.153-8.738 30.316-12.164 10.162-3.427 21.247-4.02 31.304-7.605 6.854-2.451 14.051-3.242 21.09-4.52 6.511-1.16 12.245 1.397 14.947 7.34 2.873 6.3 6.261 13.114 4.257 20.086-2.715 9.594-5.905 19.123-10.953 27.795-6.222 10.688-13.787 20.783-25.044 26.701-7.908 4.177-16.502 6.51-24.859 9.634a97.29 97.29 0 0 1-19.6 5.522c-10.439 1.581-20.008 7.749-30.21 10.319a411.939 411.939 0 0 1-42.601 8.276 50.487 50.487 0 0 1-15.289.462c-2.412-.343-4.64-.119-6.934-1.134-1.621-.711-3.282-1.476-4.89-2.148-5.575-2.412-10.966-6.405-10.333-13.179.606-6.366 2.913-12.771 4.112-19.018.83-4.151.909-8.25 1.924-12.401.752-3.163 1.463-6.392 2.333-9.529a26.867 26.867 0 0 1 3.282-7.749c2.966-4.152 5.273-9.002 8.397-12.955a33.092 33.092 0 0 0 3.611-4.679 18.251 18.251 0 0 1 2.755-4.217c1.199-1.318 2.03-3.045 3.308-4.363a59.205 59.205 0 0 1 8.067-6.141 111.208 111.208 0 0 1 19.653-11.558c6.748-2.94 13.787-4.903 20.72-7.236 6.221-2.148 11.981-5.535 18.163-7.907a94.604 94.604 0 0 1 21.696-5.272 352.07 352.07 0 0 1 44.551-3.097c18.69.08 39.397-6.998 57.139 1.924a19.556 19.556 0 0 1 9.951 10.438 58.637 58.637 0 0 1 4.521 23.723c-.039 3.453.369 7.037-.197 10.385Z" style="mix-blend-mode:multiply" opacity=".5"/>
    </g>
    <g style="mix-blend-mode:soft-light" opacity=".63" fill="#C4B0B8">
      <path d="M50.233 161.629c1.318 3.453 3.005 6.471 4.125 9.977a30.003 30.003 0 0 0 3.005 7.143c1.398 2.267 2.241 4.85 3.572 7.183a35.944 35.944 0 0 1 3.493 8.184c.54 2.109.633 4.336 1.213 6.471.738 2.728 1.476 5.469 2.24 8.198a18.311 18.311 0 0 0 2.334 4.784c1.001 1.607 2.161 4.125 3.73 5.271 5.048 3.572 12.284 2.056 18.11 1.424 5.273-.567 10.677-.607 15.989-1.318a47.06 47.06 0 0 1 8.409-.198c2.684.132 5.356.436 8.001.909 2.293.448 4.521.514 6.827.883 3.309.528 6.591 1.318 9.912 1.661 3.704.29 7.514.83 11.217.909 5.273.093 10.716-.448 16.015.119a134.61 134.61 0 0 0 13.945 1.318c6.077 0 12.14-1.806 17.781-3.862 9.398-3.426 19.086-6.22 28.524-9.673a64.208 64.208 0 0 0 9.806-5.272c2.887-1.687 5.984-2.794 8.765-4.652a51.64 51.64 0 0 1 17.135-6.748c5.932-1.318 11.666-3.466 17.544-4.85 3.954-.922 7.724-2.926 11.652-3.44-.738 3.084-7.473 4.205-9.886 5.074-5.575 1.99-11.625 3.084-17.016 5.509-3.519 1.595-6.024 4.639-8.792 7.223-2.636 2.372-4.468 4.836-7.407 6.8a25.236 25.236 0 0 1-9.583 3.954c-7.579 1.515-14.973 4.23-22.526 5.904-7.552 1.674-14.934 3.4-21.88 6.59-1.924.896-7.579 3.123-7.816 5.904-.185 2.227 2.517 1.41 4.086 1.41 3.374 0 7.829-.804 11.006.527a39.618 39.618 0 0 0 7.091 2.715 31.97 31.97 0 0 0 17.135-1.792c7.25-2.821 15.171-4.257 22.79-5.707 5.272-1.015 10.4-2.53 15.659-3.637 4.046-.718 8.13-1.202 12.232-1.45 5.957-.567 11.928-1.252 17.846-2.24 4.732-.804 9.912-1.318 14.249-3.387 3.598-1.767 7.816-2.874 10.993-5.351.843-.659 5.641-4.797 6.761-3.849 2.333 2.004-10.94 9.555-11.862 10.175a71.9 71.9 0 0 1-13.577 6.708c-6.036 2.464-12.231 3.545-18.453 5.113-7.17 1.78-14.314 3.256-21.445 5.074-7.131 1.819-14.499 2.729-21.63 5.114a75.186 75.186 0 0 0-10.465 4.099c-3.085 1.581-6.367 2.636-9.411 4.283-6.591 3.519-12.746 8.461-19.877 10.754a84.485 84.485 0 0 1-19.152 4.218c-8.554.685-17.135-.514-25.597-1.397a218.04 218.04 0 0 0-26.124-1.477c-8.067.132-16.121 1.819-24.174 2.201-5.549.264-10.004-1.713-15.105-3.611a90.407 90.407 0 0 1-15.896-8.052 26.837 26.837 0 0 0-15.013-4.086 19.538 19.538 0 0 0-3.335.765 5.567 5.567 0 0 1-3.612-.989c-4.745-2.227-9.503-5.891-11.862-10.794a57.802 57.802 0 0 1-4.442-16.592 77.051 77.051 0 0 1-.119-9.871c0-4.363-.79-8.659-.751-13.048 0-6.932-.791-14.286 1.397-20.994 2.043-6.313 6.248-12.204 10.083-17.529 2.188-3.018 3.954-6.26 6.235-9.225.804 1.582-1.107 4.613-1.503 6.247-.487 2.333-1.37 6.642-2.596 4.296Zm325.434 37.825c-2.043 2.636-5.72 6.023-6.287 9.489-.567 3.466 3.216 2.873 5.668 2.504 5.272-.83 10.808-1.318 15.817-3.4 2.965-1.226 5.733-2.926 8.699-4.165 2.452-1.041 5.075-1.41 7.526-2.438 5.839-2.465 12.127-3.769 17.913-6.432a51.4 51.4 0 0 0 13.642-9.989c2.847-2.729 5.589-4.85 7.553-8.369 1.436-2.636 3.15-5.14 4.336-7.908a44.468 44.468 0 0 0 2.834-11.532c.283-2.102.31-4.23.079-6.339-.659-4.823-5.509-5.271-9.609-4.705-5.048.699-9.108 3.638-12.851 6.853-3.743 3.216-6.59 6.801-10.676 9.226-4.495 2.741-8.871 5.509-13.181 8.474a39.594 39.594 0 0 0-6.472 5.1c-1.634 1.674-3.216 3.467-4.996 4.995a45.755 45.755 0 0 1-5.839 4.073c-1.647 1.028-3.163 2.477-4.85 3.36a23.952 23.952 0 0 0-6.011 4.284 16.45 16.45 0 0 0-3.255 3.835c-1.384 2.609-1.108 5.825-.04 3.084Zm58.523-69.929c.87-2.715 1.45-3.73 3.954-5.035 1.556-.817 2.636-1.028 3.757.699 2.03 3.334.566 7.393-.752 10.609-.949 2.346-4.732 4.705-6.458 1.753-1.16-2.003-1.121-7.907 1.647-8.738l-2.148.712Z" style="mix-blend-mode:soft-light" opacity=".63"/>
      <path d="M220.094 228.712c1.318-2.439 1.621-2.702 3.954-3.585a14.651 14.651 0 0 1 4.706-1.424c2.016-.197 4.218-1.317 6.261-.553 3.137 1.12 2.544 3.875.421 5.825a6.473 6.473 0 0 1-3.137 1.872c-1.641.43-3.326.669-5.021.711-2.874 0-5.273.119-7.777-1.568a1.135 1.135 0 0 1 .659-1.318l-.066.04ZM100.188 409.201a78.415 78.415 0 0 0 25.465 4.362 263.23 263.23 0 0 0 30.751-.923c6.801-.645 13.55-.474 20.325-1.436 3.282-.475 6.406-.33 9.688-.488 1.885-.079 3.862-1.199 5.707-.619 7.131 2.174-5.536 6.273-6.973 6.985-5.153 2.556-10.913 3.439-16.383 5.034-2.109.606-4.258 1.213-6.327 1.924a48.821 48.821 0 0 1-5.852 2.175c-8.397 1.832-16.793 2.636-25.163 4.441a24.645 24.645 0 0 1-9.661.567c-3.348-.619-6.472-2.636-9.451-4.125a72.52 72.52 0 0 1-10.703-5.852 35.395 35.395 0 0 1-4.89-3.953 7.42 7.42 0 0 1-1.318-2.9c-.844-2.161-.804-3.031 1.055-4.613a5.277 5.277 0 0 1 5.061-1.133c.013.211.053.409-1.331.554Zm217.194 84.254a42.409 42.409 0 0 0-11.995 5.483c-1.608 1.133-3.585 3.07-1.212 4.52 3.203 1.951 8.409.909 11.862.606 5.958-.54 11.863-1.634 17.768-2.412 4.033-.54 7.988-.962 11.968-1.766a127.987 127.987 0 0 0 15.277-4.401 46.636 46.636 0 0 0 10.545-4.903 89.526 89.526 0 0 0 10.109-6.59c4.099-3.439 9.504-6.128 11.085-11.624 1.318-4.573-8.567-2.925-10.544-2.635a108.546 108.546 0 0 0-21.525 5.363c-3.018 1.068-6.247 1.885-9.226 3.177-3.954 1.752-7.737 3.835-11.771 5.39-1.911.751-3.585 1.95-5.523 2.636-1.7.632-3.413 1.199-5.101 1.884-1.687.686-3.769 1.621-5.694 2.241-4.349 1.489-8.725 2.688-6.023 3.031Zm78.993-33.304c.751-2.464 2.332-3.598 4.165-5.377 1.423-1.384 2.781-2.873 4.85-3.163 1.529-.224 3.954 1.542 3.282 3.295a12.87 12.87 0 0 1-2.069 2.636 7.839 7.839 0 0 1-2.715 2.636 9.854 9.854 0 0 1-7.039.448l-.474-.475Zm25.689-59.939a33.565 33.565 0 0 1-5.444 2.636c-1.435.33-2.887.581-4.349.751-4.363.686-8.871.989-13.274 1.424-5.628.553-11.216 1.318-16.845 1.779-9.938.751-20.39 1.608-29.894 4.665a134.316 134.316 0 0 0-23.119 9.845 121.728 121.728 0 0 0-18.598 11.861 58.558 58.558 0 0 0-5.365 5.167 14.864 14.864 0 0 0-3.018 3.953c-1.041 2.346-.092 3.954 1.964 5.272 3.203 2.043 7.091 2.227 10.755 2.728 5.444.751 10.861 1.437 16.279 2.28a158.054 158.054 0 0 0 16.924 1.845c5.813.264 11.863.145 17.399-1.963a78.876 78.876 0 0 0 11.388-5.127c3.559-2.043 7.104-4.059 10.479-6.392a53.326 53.326 0 0 0 7.117-5.021c.936-.883 1.885-1.648 2.86-2.465 1.516-1.318 2.637-2.912 4.152-4.191a59.008 59.008 0 0 0 9.227-9.7c2.083-2.741 4.613-5.074 6.67-7.815 1.212-1.634 2.478-2.491 3.202-4.494a30.354 30.354 0 0 0 1.49-7.038Zm11.889-8.144a14.506 14.506 0 0 1 3.664-4.376c1.2-1.133 2.782-3.123 4.442-3.651a2.435 2.435 0 0 1 2.491.383c.294.343.512.745.639 1.179.127.434.161.89.1 1.338-.343 2.003-2.294 3.558-3.955 4.428-2.069 1.068-3.282.527-5.457.224l-1.924.475Zm75.658-70.825a17.919 17.919 0 0 0-2.953 2.873c-1.318 1.911-2.425 3.953-3.954 5.706a43.185 43.185 0 0 0-4.099 6.208c-1.556 2.715-3.388 5.271-4.838 7.999-3.137 5.957-5.628 12.231-8.435 18.346-1.411 3.057-2.637 6.194-3.955 9.225a40.747 40.747 0 0 0-3.361 10.24c-.408 2.557-1.067 6.946 2.373 7.407 4.27.58 8.567-3.097 11.678-5.548a93.1 93.1 0 0 0 20.641-23.262c5.536-8.751 10.901-19.268 9.517-29.929a57.485 57.485 0 0 1 .316-14.498c.659-5.1 2.228-10.2 2.32-15.366 0-3.664.672-7.249-.132-10.86a4.653 4.653 0 0 0-1.555-3.058c-.949-.553-1.608 0-2.465.646a19.229 19.229 0 0 0-6.011 7.183c-1.687 3.505-1.779 7.288-3.202 10.886a38.9 38.9 0 0 1-1.384 3.769c-.528.988-1.174 1.937-1.714 2.939a24.955 24.955 0 0 0-1.766 5.654c-.317 1.199-.501 2.319-.831 3.519-.263.935-.672 1.937-.856 2.886-.185.949.145 1.713 4.666-2.965Zm-39.49 63.273c-.856.843-6.037 5.851-4.033 7.13.554.356 2.083 0 2.636-.251a10.65 10.65 0 0 0 2.834-1.963 3.508 3.508 0 0 0 1.41-3.44c0-2.254-1.423-2.188-3.321-1.424l.474-.052Zm12.364 11.887c1.107-1.476 1.423-2.108 2.979-2.714a18.86 18.86 0 0 1 3.585-1.621c1.647-.264 2.412.355 2.544 2.016.237 2.833-3.256 6.497-4.825 8.514a39.545 39.545 0 0 1-6.59 7.064c-3.572 2.794-6.169-1.714-4.837-5.061.804-2.03 1.133-4.428 2.399-6.234 1.977-2.833 4.929-2.82 8.093-3.4l-3.348 1.436ZM206.531 88.13a12.14 12.14 0 0 0-6.037 7.907c-.501 1.62-1.134 5.074.224 6.471 2.32 2.398 8.541-.224 10.795-1.094 4.389-1.687 8.858-4.191 13.431-5.272 8.634-1.99 18.111-2.794 25.532-8.105a45.656 45.656 0 0 0 10.689-11.36c1.872-2.729 4.337-4.943 4.587-8.462.488-7.116-9.451-7.59-14.13-6.497a140.232 140.232 0 0 0-28.998 9.819c-5.456 2.635-12.231 5.983-16.08 10.886a18.267 18.267 0 0 0-2.32 4.441c-.475 1.12-1.529 4.35 2.307 1.265Zm18.558 19.979c-1.173-2.636-1.753-2.86.198-4.455a31.67 31.67 0 0 1 5.272-3.281 15.367 15.367 0 0 1 7.144-1.608c4.983.593 2.716 6.207 1.174 8.909-.963 1.7-1.674 3.268-3.283 4.178-1.898 1.08-3.176 1.634-5.272.935a11.696 11.696 0 0 1-3.954-2.517c-.844-.751-2.808-2.122-2.636-3.466l.619-.119.738 1.424Zm-34.981 61.375c.118-2.359-.079-2.886 1.397-4.375 2.188-2.241 5.404-3.954 7.988-5.615a80.655 80.655 0 0 1 18.901-8.803 112.605 112.605 0 0 1 18.123-4.204c4.587-.712 8.924-2.228 13.537-2.873 7.105-.976 15.817-4.415 21.498 2.319 4.561 5.456-3.875 12.678-7.908 15.644a30.05 30.05 0 0 1-11.455 5.047c-4.916 1.239-9.767 2.715-14.683 3.954-9.134 2.267-17.623 6.59-26.362 10.03-6.023 2.345-10.32 2.121-15.738-1.463-2.939-2.017-7.934-7.17-5.298-9.661Zm82.788-40.671c-1.186 2.188-4.138 6.194-.329 7.565 2.162.778 3.717-.962 5.272-2.201 1.556-1.239 3.862-2.636 5.048-4.652a3.33 3.33 0 0 0 .581-3.069 3.346 3.346 0 0 0-2.215-2.203c-4.468-1.99-6.59 2.293-9.134 5.272l.777-.712Zm69.951-43.531c-3.954 4.112-6.34 8.896-5.694 14.735.646 5.838 4.455 6.932 9.226 4.547a27.194 27.194 0 0 0 4.139-2.122c1.318-1.028 2.135-2.952 3.137-4.297a15.563 15.563 0 0 0 3.414-10.016c0-3.598.422-7.446-.54-10.925-.528-1.925-1.318-4.508-3.006-5.694-2.003-1.318-3.532.435-4.995 1.621a12.187 12.187 0 0 0-3.585 3.427 40.883 40.883 0 0 0-3.599 9.436l1.503-.712ZM262.194 208.02c.171-2.715.092-2.899 2.056-4.402a45.77 45.77 0 0 1 4.521-3.321 26 26 0 0 1 9.78-3.018 13.946 13.946 0 0 1 7.908 1.318c1.543.87 1.832 2.636 1.45 4.468-.54 2.57-3.097 4.204-5.008 5.72-1.912 1.515-4.548 3.545-6.96 4.125a17.957 17.957 0 0 1-8.95.356c-1.792-.475-5.575-1.226-5.536-3.77l.739-1.476Zm34.968-24.974c1.753-2.478 2.861-4.679 5.536-6.3 1.16-.712 4.073-2.886 5.563-2.886a3.097 3.097 0 0 1 2.451 2.398c.159 1.252-1.067 2.926-1.74 3.954a14.492 14.492 0 0 1-6.076 5.166 4.985 4.985 0 0 1-3.585.396c-1.318-.369-1.793-1.595-2.86-1.99l.711-.738ZM157.999 77.428c-3.506 3.479-6.366 7.156-7.5 12.138a3.825 3.825 0 0 0 1.015 4.177c1.859 1.648 4.231.752 6.406 0 6.089-2.069 11.863-5.706 17.135-9.225 4.851-3.19 11.349-4.085 15.066-8.725 2.016-2.504 4.125-5.271 2.188-8.592-1.687-2.834-5.971-4.046-8.99-4.1a26.222 26.222 0 0 0-12.535 3.375 43.284 43.284 0 0 0-12.785 10.952Zm-19.982-14.985c6.749-1.318 12.574-2.702 18.453-6.3 1.186-.712 2.373-1.054 3.506-1.7 1.134-.646 1.318-1.397 2.162-2.188-.58-2.74-7.975-1.094-9.675-.369-2.267.95-4.56 2.28-6.762 3.387a23.914 23.914 0 0 0-3.427 1.872c-2.201 1.634-3.519 4.468-4.995 6.721l.738-1.423Z" style="mix-blend-mode:soft-light" opacity=".63"/>
    </g>
    <g style="mix-blend-mode:multiply" opacity=".47" fill="#C4B0B8">
      <path d="M347.842 212.831a60.902 60.902 0 0 1-6.01 3.321c-3.388 1.384-6.472 3.334-9.833 4.784-3.954 1.713-8.225 2.846-12.298 4.243a83.565 83.565 0 0 0-16.515 7.42c-5.273 3.216-10.308 7.908-13.01 13.496-1.542 3.229-2.175 7.591-.29 10.846a11.784 11.784 0 0 0 4.851 4.85c3.466 1.555 6.84.567 10.32-.25a53.735 53.735 0 0 0 12.693-4.494c2.149-1.12 4.192-2.425 6.34-3.559 2.149-1.133 4.745-2.056 7.105-3.018a70.55 70.55 0 0 1 5.589-2.003 21.485 21.485 0 0 0 6.405-3.426 33.235 33.235 0 0 0 9.398-10.373c2.94-5.271 4.469-10.648 3.454-16.553-.791-4.573-4.152-6.813-8.199-5.284Z" style="mix-blend-mode:multiply" opacity=".47"/>
      <path d="M283.125 245.607c-1.318-1.753-2.162-1.581-4.271-1.463-1.63.176-3.246.462-4.837.857-7.909 1.661-15.975 2.504-23.831 4.52a53.504 53.504 0 0 0-12.548 4.455c-3.954 2.135-8.08 4.046-11.968 6.379a93.321 93.321 0 0 1-28.774 11.782c-6.367 1.318-12.733 2.636-19.126 3.822-3.848.711-7.75 1.318-11.586 2.109-3.835.79-7.631 1.91-11.48 2.767a146.015 146.015 0 0 0-20.285 5.694c-6.736 2.543-13.603 4.902-18.875 10.003-2.702 2.635-6.169 6.444-6.156 10.451a15.53 15.53 0 0 0 2.636 7.907c5.273 8.725 15.409 13.904 24.214 18.372 12.205 6.194 26.717 6.998 40.069 8.54a166.208 166.208 0 0 0 52.21-2.636c7.71-1.568 15.474-3.097 23.211-4.547 9.332-1.752 18.77-2.991 28.075-4.942 7.658-1.621 15.369-3.413 22.895-5.601a94.549 94.549 0 0 0 12.14-4.257 99.42 99.42 0 0 0 9.978-5.522 70.286 70.286 0 0 0 7.908-5.074 35.403 35.403 0 0 0 5.563-6.102c2.741-3.532 4.507-7.433 6.695-11.268a84.263 84.263 0 0 1 4.745-7.855c1.78-2.438 3.876-4.731 5.813-7.051 4.06-4.889 9.042-9.107 12.838-14.181 2.215-2.952 4.376-6.668 4.68-10.398.21-2.543.224-5.153-2.439-6.313a15.825 15.825 0 0 0-8.185-.87 49.644 49.644 0 0 0-8.093 2.307 75.67 75.67 0 0 0-13.537 5.351c-10.861 5.825-21.551 13.06-33.782 15.656-5.049 1.081-10.097 1.635-14.947-.369a49.968 49.968 0 0 1-10.321-5.403c-4.218-3.044-2.939-6.656-1.094-10.82.791-1.845 3.084-5.839 2.465-6.3Zm234.565-56.618a91.305 91.305 0 0 1-1.067 13.272c-.277 1.964-.607 3.954-.91 5.878-.408 2.636-1.66 4.955-2.28 7.551-1.107 4.653-3.321 8.685-5.272 12.995-1.951 4.31-3.269 9.028-5.273 13.456-5.456 12.547-8.712 25.844-14.037 38.431-2.636 6.233-5.035 12.678-7.909 18.78-2.636 5.496-5.76 10.754-8.488 16.184-1.028 2.03-3.836 5.772-1.7 7.907 1.7 1.687 4.797.132 6.59-.83 7.17-3.835 10.215-12.915 14.631-19.281 2.24-3.216 5.681-5.641 8.014-8.83 3.044-4.165 6.656-9.133 8.659-13.838 4.166-9.74 6.723-19.835 10.334-29.772 2.992-8.211 3.44-16.171 3.44-24.79 0-3.611.409-7.235-.685-10.688-1.002-3.256-1.793-8.646-4.047-26.425Zm-13.312 12.363c-3.031 2.912-9.226 10.068-6.274 14.826 1.621 2.636 6.34 1.476 8.001-.764 1.423-1.924 1.12-5.14 1.12-7.394 0-1.239.409-3.097 0-4.217-.408-1.12-1.582-1.318-1.832-2.451h-1.015ZM446.33 339.351a102.613 102.613 0 0 0-11.138 7.63 69.455 69.455 0 0 1-10.716 5.918 111.066 111.066 0 0 1-29.749 9.304c-13.181 2.307-26.731 4.06-39.543 8.29-9.727 3.203-19.362 6.59-28.998 10.029-9.094 3.216-19.428 5.523-27.521 10.966-1.99 1.317-4.666 3.413-3.954 6.102 1.133 4.296 9.951 4.467 13.088 4.599 9.464.395 19.06 0 28.537 0 4.547 0 9.108-.25 13.642.198a85.99 85.99 0 0 0 16.977 0c7.104-.633 14.499-.488 21.379-2.636 13.181-4.231 26.269-9.226 39.174-14.273 11.572-4.573 28.365-14.023 27.35-28.48-.435-6.26-4.31-15.011-8.528-17.647Zm19.033 11.387c-1.925-3.954-2.439-4.995-.356-8.646 1.318-2.319 5.272-5.733 8.225-5.746 5.891 0 6.076 6.748 4.758 10.846-1.16 3.585-2.636 9.041-6.92 9.226a4.529 4.529 0 0 1-3.757-1.16c-1.397-1.028-3.321-4.31-4.811-4.56l2.861.04Zm-414.84 11.413c-1.068 4.481-1.714 8.566.474 12.876 3.018 5.996 9.688 10.016 15.817 11.953a46.1 46.1 0 0 0 11.863 1.832c4.494.211 8.976.91 13.47.989 6.729.083 13.444.615 20.101 1.594 3.704.541 7.289 1.621 10.98 2.069 2.871.308 5.722.774 8.541 1.397 6.011 1.397 11.995 1.437 18.058 2.28 6.43.755 12.935.604 19.323-.448 5.549-.83 11.428-1.568 14.064-6.932 2.069-4.217.553-6.484-3.137-9.357-3.282-2.557-8.792-3.664-12.641-4.929-5.891-1.951-11.744-3.756-17.794-5.272-8.435-2.043-16.555-5.047-24.898-7.512-17.135-5.048-33.572-12.085-51.498-13.706-7.42-.686-16.199-.765-23.053 2.636a10.08 10.08 0 0 0-4.719 5.535c-1.476 3.571.303 5.72 5.049 4.995Zm-1.003-31.393c.99 3.137.791 4.112 3.691 4.995 1.864.77 3.915.967 5.892.566 2.452-.711 5.378-2.517 5.694-5.087.356-2.86-2.175-4.981-4.508-6.233-4.679-2.504-8.449-2.307-10.769 2.899v2.86Zm200.784-210.274a9.42 9.42 0 0 1 1.015-4.929 46.416 46.416 0 0 1 3.269-6.141c.91-1.318 1.489-2.781 2.346-4.152 1.213-1.937 2.452-3.703 3.493-5.746a40.687 40.687 0 0 1 5.273-7.09 25.97 25.97 0 0 0 3.321-4.771c.751-1.424 1.885-2.53 2.636-3.954 1.002-1.74 1.674-3.782 2.636-5.601a52.54 52.54 0 0 1 3.19-5.707 14.916 14.916 0 0 1 2.9-3.756 19.73 19.73 0 0 1 2.834-2.372c2.293-1.002 3.466-.211 4.653 1.91a24.251 24.251 0 0 1 2.451 12.047 45.367 45.367 0 0 1-2.359 12.665 49.387 49.387 0 0 1-4.139 8.158c-2.807 4.942-6.168 9.515-9.45 14.154-1.938 2.742-5.207 5.008-7.909 7.077a17.46 17.46 0 0 1-5.536 2.926c-1.133.369-2.715 1.147-3.954.896a24.403 24.403 0 0 1-3.361-1.318c-2.742-1.014-4.06-3.373-3.309-4.296Zm-10.465 3.809c-1.648.83-3.375 1.41-4.073 3.216-.198.487-.514 1.528-.172 2.042 1.318 1.911 5.853-.645 6.881-1.673 1.028-1.028 2.162-2.913 1.173-4.271a2.648 2.648 0 0 0-1.848-.948 2.637 2.637 0 0 0-1.961.685v.949Zm84.212-68.031a10.23 10.23 0 0 0-2.992 1.99 10.162 10.162 0 0 0-.923 2.398 39.244 39.244 0 0 0-2.214 9.345c-.316 3.136-.409 8.685 3.256 9.976 7.117 2.504 17.517-2.636 18.097-10.609.329-4.534-2.135-8.751-4.785-12.204a26.528 26.528 0 0 0-4.534-4.955 5.76 5.76 0 0 0-4.257-1.2c-2.465.501-4.337 2.953-1.648 5.259Zm-1.437 39.01c0-1.555 0-1.937 1.028-2.952a7.506 7.506 0 0 1 2.32-1.74c1.687-.553 2.781.699 2.86 2.294.066 1.212.119 3.677-.975 4.52-1.094.844-5.523.08-5.272-1.647l.039-.475Zm51.867-32.355c-.725 2.966-.619 6.023-1.186 9.054a105.003 105.003 0 0 0-1.635 15.038c-.092 2.636 0 5.18-.131 7.776a62.662 62.662 0 0 0-.317 9.568c.422 4.125.883 8.461 3.625 11.755 1.951 2.346 4.679 1.49 7.249.541a29.884 29.884 0 0 0 5.747-3.664 30.609 30.609 0 0 0 4.06-3.176c5.681-5.272 10.795-11.084 13.075-18.715 1.648-5.548 3.269-11.86 1.912-17.58a22.081 22.081 0 0 0-4.785-9.924 22.268 22.268 0 0 0-6.696-4.996c-2.096-1.12-4.363-1.212-6.59-1.74a25.114 25.114 0 0 0-5.694-.605 27.888 27.888 0 0 0-5.273.527c-3.73.698-4.653 5.654-3.361 6.141Zm5.707 61.85c.659-2.069 2.149-4.204 4.587-3.071a3.655 3.655 0 0 1 1.858 4.745 3.187 3.187 0 0 1-3.69 1.581 5.458 5.458 0 0 1-2.307-1.818c-.857-1.147-.158-2.043 0-3.348l-.448 1.911Zm6.67 50.898a24.708 24.708 0 0 0-5.536 1.173 4.207 4.207 0 0 1-.699 1.16c-.382.501-1.516 1.16-1.318 1.885 2.399 1.014 5.826-.607 7.909-1.727a14.119 14.119 0 0 0 3.044-2.003 12.445 12.445 0 0 0 1.622-1.727c.764-1.383 0-2.108-1.411-2.095-1.41.013-4.863 1.107-4.995 2.86l1.384.474Zm78.979-8.079a9.421 9.421 0 0 1-1.067 4.653c-.672 1.7-1.621 3.716-1.318 5.614.659 4.494 6.867 3.598 10.03 3.189 3.717-.487 7.25-1.318 10.031-3.953a10.27 10.27 0 0 0 3.651-6.761c.659-4.771 1.766-12.837-5.272-12.745a15.306 15.306 0 0 0-8.093 2.979 18.736 18.736 0 0 0-4.231 4.125c-1.635 1.911-3.441 3.506-3.731 2.899Zm-49.481 258.747c2.057-6.668 5.273-12.335 11.376-16.118 1.423-.883 2.636-2.029 4.336-1.146 1.397.738 1.134 2.359.699 3.743a20.176 20.176 0 0 1-3.546 5.864 57.714 57.714 0 0 1-4.547 4.587 7.825 7.825 0 0 1-3.322 2.148c-1.702.059-3.385.37-4.996.922Zm-242.184 7.657c.119-2.556 1.595-3.756 3.611-5.443a44.64 44.64 0 0 1 15.092-7.643c4.667-1.463 10.229-2.491 15.066-1.16 2.162.606 4.864 1.647 5.787 3.861 1.581 3.822-2.531 9.45-5.576 11.558-3.836 2.636-9.385 3.453-13.774 4.784a31.026 31.026 0 0 1-12.64 1.068 18.337 18.337 0 0 1-4.495-.83 40.906 40.906 0 0 1-4.086-1.239c-1.186-.633-2.728-1.621-2.834-3.031a4.583 4.583 0 0 1 .58-2.425c.751-1.213 2.333-1.371 3.269.5Z" style="mix-blend-mode:multiply" opacity=".47"/>
    </g>
    <path d="M458.943 150.401c-1.555 1.041-4.508 2.517-3.954 4.863.348 1.045.753 2.07 1.213 3.071.293.925.483 1.88.567 2.846a8.608 8.608 0 0 0 1.753 4.363c.711.777 1.463 0 1.95-.751a5.278 5.278 0 0 0 1.108-2.636 18.18 18.18 0 0 1 .434-3.69c.132-.475.488-.897.594-1.318a8.12 8.12 0 0 0 .079-2.03 5.102 5.102 0 0 0-3.744-4.718Zm-24.859 133.808c-.276.145-.606.25-.751.54-.066.16-.106.329-.119.501-.065.751.976 1.081 1.49 1.226a5.672 5.672 0 0 0 4.534-.475 4.254 4.254 0 0 0 1.964-2.807 3.853 3.853 0 0 0-2.162-3.466 3.776 3.776 0 0 0-3.809-.382c-.448.265-.8.667-1.002 1.147-.145.395-.118.817-.237 1.212s-.514.923-.435 1.502c.055.385.241.739.527 1.002Zm8.476 2.544a.88.88 0 0 1 .408-.791.673.673 0 0 1 .883-.119 1.153 1.153 0 0 1 .453.755 1.146 1.146 0 0 1-.215.853 1.214 1.214 0 0 1-1.094.343.948.948 0 0 1-.686-.975l.251-.066Zm20.839-31.644c-.51.044-.983.285-1.318.673a.889.889 0 0 0-.343.804 3.955 3.955 0 0 0 1.397 2.464 1.999 1.999 0 0 0 1.74.343 5.4 5.4 0 0 0 1.463-.962 11.76 11.76 0 0 0 1.173-.962 2.321 2.321 0 0 0 1.028-2.28 2.487 2.487 0 0 0-1.726-1.846 3.228 3.228 0 0 0-1.727.159c-.685.184-1.173.184-1.687 1.607Zm-3.889 2.781c.419.155.798.402 1.107.725-.079.211.132.395 0 .62-.132.224-.725.079-.962 0a1.315 1.315 0 0 1-.738-.673c0-.118-.29-.632 0-.579l.593-.093Zm-46.291 17.133c-.422.475-.896.989-.593 1.727a1.521 1.521 0 0 0 1.687.659c.33 0 .699-.132.844-.488.145-.356.197-.791.316-1.16.277-.896 1.318-1.318.791-2.385a1.74 1.74 0 0 0-1.213-.936c-.857 0-1.529.791-2.03 1.489l.198 1.094Zm-125.573 89.46c.263-.566.579-1.607 1.555-1.963a2.754 2.754 0 0 1 1.819 0c1.463.237 2.913.698 1.951 2.148a4.645 4.645 0 0 1-2.637 1.516c-.87.145-2.478-.132-2.399-.87l-.289-.831Zm88.443-307.299c-.33 1.318-.778 2.966.724 3.954 1.029.633 2.637 0 3.493-.698a9.327 9.327 0 0 0 2.874-5.074c.224-1.727-1.859-3.572-3.44-3.77-3.23-.395-4.956 4.732-5.141 7.144l1.49-1.556Zm-7.197 290.746a7.092 7.092 0 0 0-1.055 5.101c.132 1.067.145 2.504 1.542 2.86 3.296.83 6.71-5.272 7.593-7.288a10.562 10.562 0 0 0 1.041-5.088c-.092-.962-.804-2.846-1.951-3.242a4.751 4.751 0 0 0-4.402 1.516c-2.478 2.478-2.294 5.338-3.638 8.013l.87-1.872Zm-1.727-.224c-.86.127-1.705.348-2.517.659-.409.238-1.055.607-1.2.989-.145.382.159.975.554 1.318a1.324 1.324 0 0 0 1.186.184c.322-.19.607-.435.844-.725a8.078 8.078 0 0 0 1.002-1.318c.168-.205.309-.431.421-.672.119-.369-.158-.461-.237-.738l-.053.303Zm-3.769 14.629 1.107.33c-.119.369 0 .777-.475 1.054a2.867 2.867 0 0 1-1.476.198c-.488-.106-.765-.382-.699-.804.066-.422.673-.738 1.239-.883l.304.105Zm-55.782 12.31c0 .395 0 .672.448.843a2.31 2.31 0 0 0 2.215-.474c.804-.752 1.516-2.135 1.015-2.887a1.773 1.773 0 0 0-2.215-.25c-.4.283-.771.605-1.107.962a2.152 2.152 0 0 0-.382 1.713l.026.093Zm-58.655-95.035c-.395.355-.593.474-.685.975a2.106 2.106 0 0 0 .171 1.621 5.76 5.76 0 0 0 3.362 1.95 3.064 3.064 0 0 0 2.715-.514 3.955 3.955 0 0 0 1.753-2.754 2.64 2.64 0 0 0-1.147-2.9 8.087 8.087 0 0 0-3.058-1.449 2.72 2.72 0 0 0-2.386.738c-.659.553-1.529 1.555-.725 2.333Zm8.647 3.861c0-.316 0-.698.317-.791a2.183 2.183 0 0 1 1.568.633c.29.337.449.768.448 1.212a1.32 1.32 0 0 1-.553.712 1.092 1.092 0 0 1-1.318.092c-.277-.171-.949-.527-.844-.935l.382-.923ZM92.147 249.732a17.777 17.777 0 0 1-3.427-11.65c.093-1.779-.105-4.995 2.426-4.745 3.4.33 5.14 5.602 6.09 8.237 1.41 3.954 2.78 7.908 2.28 12.138-.686 5.786-8.305-5.733-9.056-6.8l1.687 2.82Zm7.329-19.123c-.606 3.361.896 8.132 4.534 9.226 1.318.382 1.779-.422 2.465-1.648a4.722 4.722 0 0 0 .633-3.953 12.104 12.104 0 0 0-1.569-2.504 8.467 8.467 0 0 1-.936-1.411c-.25-.54-.158-.962-.58-1.436-1.015-1.147-4.943-2.082-4.547.593v1.133Zm37.065 238.346a10.778 10.778 0 0 1 4.151-5.206 22.413 22.413 0 0 1 7.118-3.163 12.107 12.107 0 0 1 7.21.554c2.228 1.186 4.205 2.952 6.314 4.322 1.911 1.252 3.835 1.951 5.509 3.612a15.18 15.18 0 0 1 3.388 5.39c1.16 3.057 2.003 7.749.698 10.859-1.186 2.834-2.86 2.874-5.694 2.821-3.954-.066-7.816-3.308-10.32-6.208a29.246 29.246 0 0 0-3.783-4.204c-1.806-1.423-3.691-2.741-5.589-4.033a55.132 55.132 0 0 1-5.391-3.4c-.725-.632-3.071-2.425-3.611-1.344Zm68.513-179.685c-.25 1.45-.619 2.082.448 2.794a1.939 1.939 0 0 0 2.254 0c.804-.475 2.637-2.188 2.36-3.203-.475-2.122-5.8-2.201-5.523.369l.461.04Zm99.766 68.07c-.857-3.953 3.176-9.713 7.737-12.942 6.498-4.612 16.371-5.614 23.646-4.639 6.103.804 11.112 4.033 12.338 8.409.329 1.173.105 2.398.382 3.571.224.896.461 1.41-.857 2.162-3.282 1.858-8.475 3.004-12.166 3.611a69.399 69.399 0 0 1-12.482 1.318c-3.533-.079-6.907-.593-10.439-.725a28.083 28.083 0 0 1-5.022-.435c-.831-.158-2.9.132-3.137-.33Zm33.466-24.368c.606.751.633 1.186 1.832 1.318a4.973 4.973 0 0 0 2.636-.778c.963-.553 2.294-1.871 1.819-2.635-.843-1.437-6.59-.58-5.997 1.318l-.29.777Zm90.289-76.439a8.113 8.113 0 0 1 1.173-3.058 2.518 2.518 0 0 1 1.911-.356 3.88 3.88 0 0 1 3.005 1.74 5.436 5.436 0 0 1 1.318 1.937c.91 4.152-6.406 2.359-7.368-.263h-.039Z" fill="#C4B0FF" style="mix-blend-mode:soft-light"/>
  </g>
  <defs>
    <radialGradient id="b" cx="0" cy="0" r="1" gradientUnits="userSpaceOnUse" gradientTransform="matrix(276.007 0 0 275.972 276.007 275.972)">
<!--       <stop offset=".81" stop-color="#008BC4"/> -->
      <stop offset=".979" stop-opacity="0"/>
    </radialGradient>
    <radialGradient id="c" cx="0" cy="0" r="1" gradientUnits="userSpaceOnUse" gradientTransform="matrix(352.047 0 0 352.003 221.372 192.218)">
      <stop stop-color="#7C83FF"/>
      <stop offset=".84" stop-color="#482088"/>
      <stop offset=".95" stop-color="#403B77"/>
      <stop offset="1" stop-color="#4D79D1"/>
    </radialGradient>
    <clipPath id="a">
      <path fill="#fff" d="M0 0h552v562H0z"/>
    </clipPath>
  </defs>
</svg>
