<svg width="682" height="614" viewBox="0 0 682 614" fill="none" xmlns="http://www.w3.org/2000/svg">
  <path d="M582.013 432.573c10.754-1.522 21.584-6.119 32.466-15.704 24.268-21.373 19.638-57.973 1.431-79.763-18.611-22.203-56.388-35.345-101.621.711-76.614 61.071-108.493 38.815-108.804 38.569l-5.564 7.19c1.477 1.171 37.014 27.531 120.092-38.663 40.082-31.891 72.243-21.969 88.98-1.985 15.466 18.508 19.686 49.385-.462 67.112-25.006 22.001-49.922 13.551-76.299 4.619-10.611-3.604-21.582-7.322-32.638-8.999-39.483-5.988-64.105 17.56-65.136 18.561l6.356 6.497a71.598 71.598 0 0 1 57.418-16.062c10.25 1.543 20.845 5.135 31.092 8.61 17.181 5.861 34.833 11.834 52.689 9.307Z" fill="#CAB3DA"/>
  <path fill-rule="evenodd" clip-rule="evenodd" d="M525.546 517.354s22.627 20.254 39.771 10.362l-39.771-10.362Z" fill="#CAB3DA"/>
  <path fill-rule="evenodd" clip-rule="evenodd" d="M212.762 349.467c8.982 16.667 52.068 32.41 73.976 26.053.978-.279 1.94-.614 2.88-1.001 12.927-5.473 20.84-20.736 24.734-30.657a79.313 79.313 0 0 0 3.033-8.984l-5.615-44.74s-.567.191-1.532.59a78.16 78.16 0 0 0-16.212 8.973c-8.325 6.201-38.376 16.844-54.913 15.528-16.537-1.316-23.008-5.602-26.783-4.488-3.775 1.114-5.899 8.038-5.899 8.038s-3.137 13.125 6.331 30.688Z" fill="url(#a)"/>
  <path fill-rule="evenodd" clip-rule="evenodd" d="M206.431 318.779s6.409-3.46 9.71.364c3.301 3.824 10.489 28.872-3.368 30.309-13.857 1.437-6.329-30.675-6.329-30.675l-.013.002Z" fill="#684D73"/>
  <path fill-rule="evenodd" clip-rule="evenodd" d="M210.151 319.812s4.09 13.398-2.101 26.1c0 0-9.084-15.921 2.101-26.1Z" fill="#53345F"/>
  <path fill-rule="evenodd" clip-rule="evenodd" d="M177.826 323.256a45.706 45.706 0 0 0 20.242 16.273 50.2 50.2 0 0 0 11.199 3.479 26.928 26.928 0 0 0 1.893-17.82s-.94-1.578-2.491-3.856c-3.471-5.028-9.626-13.512-14.455-16.043l.57 6.363s-6.379-8.218-20.122-5.679c.014-.002-6.491 2.685 3.164 17.283Z" fill="#D9D9D9"/>
  <path d="M256.825 313.632s9.576 10.235 13.826 33.919c4.249 23.683-11.773 27.566-11.773 27.566s10.084 2.422 17.041 1.851c0 0 37.241-15.013-4.463-67.201l-14.631 3.865Z" fill="url(#b)"/>
  <path style="mix-blend-mode:multiply" fill-rule="evenodd" clip-rule="evenodd" d="M314.352 343.862c1.062 3.41 2.36 6.924 3.737 10.607l10.216-26.283-13.953-38.717-4.026.805c-.048.145-.07.286-.116.444a78.18 78.18 0 0 0-16.212 8.973s34.116 25.196-4.393 74.733c12.941-5.378 20.853-20.641 24.747-30.562Z" fill="url(#c)"/>
  <path fill-rule="evenodd" clip-rule="evenodd" d="M364.587 554.764s5.754-15.592 43.541-17.202c.005.041-12.025 20.33-43.541 17.202Zm164.189-77.565s-23.97 3.393-32.477 32.194c0 0 11.011 2.829 22.943-6.656 11.931-9.485 9.534-25.538 9.534-25.538Z" fill="#311745"/>
  <path fill-rule="evenodd" clip-rule="evenodd" d="m392.296 559.853 16.421-8.865s-.904-4.44-2.089-11.543c-3.038-17.95-7.926-52.775-4.918-75.195l-68.904-29.792s.319 4.301.905 11.076c1.805 19.669.219 60.033 6.663 75.044 8.685 20.117 51.922 39.275 51.922 39.275Z" fill="url(#d)"/>
  <path fill-rule="evenodd" clip-rule="evenodd" d="M332.802 434.431a120.434 120.434 0 0 0 66.038 30.598l2.87-.779 15.329-4.198c-.004-.05-.011-.1-.021-.149l-.044-.311a1.56 1.56 0 0 1-.035-.244 2.503 2.503 0 0 1-.044-.311c-.849-6.972-4.875-50.916 21.574-93.819a113.01 113.01 0 0 1-10.707-10.724 223.825 223.825 0 0 0-2.117-2.377c-3.413-3.836-7.547-8.673-12.443-14.796-10.703-13.222-28.559-34.676-40.856-49.41-3.69-4.432-6.894-8.255-9.258-11.108-.881-1.062-1.663-2-2.305-2.737l-1.962-2.358s-29.689 19.919-48.007 16.648c0 0-.202.622-.499 1.837-.047.158-.068.299-.117.444-1.472 6.362-4.507 25.475 4.11 53.107 1.076 3.408 2.36 6.924 3.748 10.591a112.465 112.465 0 0 0 1.603 3.913 235.53 235.53 0 0 0 9.569 65.746 190.212 190.212 0 0 0 3.574 10.437Z" fill="#CAB3DA"/>
  <path fill-rule="evenodd" clip-rule="evenodd" d="M375.717 315.913c.742.958 1.541 1.921 2.359 2.923 12.892 15.533 31.457 29.905 49.724 35.736 11.196 3.548 22.237 3.862 31.786-.719 21.326-10.277 28.205-30.113 29.791-35.87.037-.184.085-.366.143-.545.025-.16.063-.317.113-.471.097-.387.138-.585.138-.585s6.524-5.96 2.533-13.785c-3.991-7.824-13.132-18.493-13.132-18.493l-4.396.429s-3.489-5.15-9.491-4.176c-6.003.974-18.105 8.082-37.131 6.636-16.734-1.247-42.471-7.607-51.187-10.692a15.178 15.178 0 0 1-2.651-1.087 26.808 26.808 0 0 0-9.503-2.891l-2.391 1.138-1.578.748-4.846 2.314s-1.35 12.982 19.719 39.39Z" fill="url(#e)"/>
  <path fill-rule="evenodd" clip-rule="evenodd" d="M417.038 460.052s39.858 25.983 49.554 33.166c9.695 7.182 36.457 16.102 49.604 16.076.32.011.642.002.962-.025 12.354-.452 16.249-9.2 16.249-9.2s-.673-2.416-1.75-6.223c-1.449-5.066-3.613-12.556-5.964-20.005-3.087-9.912-6.484-19.78-8.763-23.597-3.877-6.53-44.855-49.782-65.983-71.932-7.481-7.813-12.465-13-12.465-13-30.762 30.958-22.911 86.033-21.576 93.806.008.105.023.209.044.311.006.082.018.164.035.244l.038.27a.985.985 0 0 1 .015.109Z" fill="url(#f)"/>
  <path fill-rule="evenodd" clip-rule="evenodd" d="M353.272 277.64s-14.401 14.457-20.642 17.355c-6.24 2.898-21.77-6.508-21.77-6.508s15.639-.158 42.412-10.847Zm11.526-5.329s7.163 52.648 53.527 79.463c0 0-41.119-17.54-65.053-74.134l11.526-5.329Z" fill="#53345F"/>
  <path fill-rule="evenodd" clip-rule="evenodd" d="M314.346 289.525s-1.785 40.613 5.349 68.883c0 0-15.659-30.209-13.268-65.954l4.433-3.967 3.486 1.038Zm131.8 83.727s-21.426 20.584-22.635 91.002l-6.432-4.208s-12.947-66.414 21.426-94.764l7.641 7.97Zm-116.847 50.953s36.495 38.299 72.396 40.033l-.472 4.372s-36.03 3.196-67.772-26.282l-4.152-18.123Z" fill="#53345F"/>
  <path fill-rule="evenodd" clip-rule="evenodd" d="M489.781 316.352s6.525-5.96 2.533-13.784c-3.991-7.824-13.132-18.493-13.132-18.493l-4.396.429s-11.674 22.612 14.995 31.848Z" fill="#684D73"/>
  <path fill-rule="evenodd" clip-rule="evenodd" d="M490.823 308.699s-16.281-11.494-11.687-24.563c.046-.061 16.32 18.305 11.687 24.563Z" fill="#53345F"/>
  <path fill-rule="evenodd" clip-rule="evenodd" d="M479.245 293.297s-2.487-11.819 6.12-19.053l2.653 4.896s9.735-14.763 23.28-10.995c0 0 5.058 23.444-22.674 38.864a25.355 25.355 0 0 1-9.379-13.712Z" fill="#D9D9D9"/>
  <path d="M504.774 435.724s8.001 15.288-9.708 34.353c-17.709 19.064-37.238 16.986-37.238 16.986s10.726 8.223 17.809 11.277c7.083 3.054 38.159-14.674 46.004-36.938 0 0-2.471-8.688-5.791-12.744-3.32-4.055-11.076-12.934-11.076-12.934Z" fill="url(#g)"/>
  <path d="M401.07 491.702s-11.024 16.38-26.575 26.709a45.43 45.43 0 0 1-31.574 7.091s7.434 9.917 15.467 14.714c0 0 20.018-4.214 29.455-12.214 9.437-8.001 14.419-20.669 14.419-20.669l-1.192-15.631Z" fill="url(#h)"/>
  <path d="M423.203 286.521s-22.239 41.452 21.737 70.702a43.863 43.863 0 0 1-15.948-2.323c-12.035-3.816-48.636-49.689-19.203-70.634l13.414 2.255Z" fill="url(#i)"/>
  <path d="m401.449 464.549.499-.567c-.299-.262-29.79-26.609-42.019-49.246-10.59-19.64-12.88-30.851-16.045-46.381-1.19-5.875-2.546-12.527-4.541-20.386a357.29 357.29 0 0 1-9.075-51.439l-.758.108a360.405 360.405 0 0 0 9.106 51.558c1.978 7.833 3.334 14.486 4.536 20.345 3.174 15.598 5.466 26.823 16.116 46.592 12.292 22.697 41.81 49.137 42.181 49.416Z" fill="#53345F"/>
  <path style="mix-blend-mode:multiply" fill-rule="evenodd" clip-rule="evenodd" d="m405.296 540.171 1.278-.719c-3.038-17.949-7.926-52.774-4.918-75.195l15.383-4.205s39.857 25.983 49.567 33.164c9.709 7.18 36.444 16.104 49.59 16.078.321.006.641-.008.96-.039l14.492-15.477c-1.433-5.054-3.611-12.542-5.949-19.993l-1.571-.178s-13.969 22.675-34.017 24.34c-20.047 1.665-60.246-39.89-61.025-48.514-2.894-32.238 12.803-58.786 21.858-71.148l-12.467-13.013a113.246 113.246 0 0 1-10.708-10.723c11.196 3.548 22.238 3.861 31.798-.735 21.313-10.275 28.193-30.097 29.777-35.868-1.892 6.132-10.799 28.794-43.617 35.771a35.996 35.996 0 0 1-20.041-1.606c-28.498-10.164-49.879-50.961-52.508-59.985a20.726 20.726 0 0 1-.783-4.167c-.618-8.067 4.541-11.682 4.541-11.682a16.957 16.957 0 0 1-2.62-1.064 26.85 26.85 0 0 0-9.502-2.891l-2.392 1.139c.192.87.417 2.066.728 3.485a211.801 211.801 0 0 0 12.584 38.992 118.207 118.207 0 0 0 16.398 27.525c22.434 27.084 29.027 31.16 29.027 31.16s-6.53 51.343-18.211 65.525c-11.68 14.183-51.901.448-62.764-7.77-5.17-3.863-8.64-6.545-10.91-8.252a175.598 175.598 0 0 0 3.526 10.291s.319 4.301.906 11.076c10.892 8.71 47.898 39.016 56.04 52.283 9.554 15.633 15.55 42.395 15.55 42.395Z" fill="url(#j)"/>
  <path fill-rule="evenodd" clip-rule="evenodd" d="M364.796 272.297s-2.706 29.622-26.602 50.598c-23.896 20.975-39.055-26.65-39.055-26.65l7.287-3.791 3.935-2.13 54.435-18.027Z" fill="#53345F" style="mix-blend-mode:multiply" opacity=".5"/>
  <path fill-rule="evenodd" clip-rule="evenodd" d="M224.484 267.93c.235.297.455.584.715.864 3.301 3.824 9.015 7.734 16.243 11.127 0 0 .431.215 1.249.54a115.982 115.982 0 0 0 50.268 9.65c30.015-1.145 72.936-11.705 97.388-36.457 24.452-24.752 25.037-84.954 14.161-102.125a171.567 171.567 0 0 0-12.274-17.208c-14.4-17.707-37.886-38.377-71.769-40.287-25.608-1.453-58.176 7.393-82.07 19.22a119.424 119.424 0 0 0-19.33 11.706 53.63 53.63 0 0 0-8.823 8.244l-.908 1.191a20.67 20.67 0 0 0-1.639 2.454c-25.188 44.215.734 110.365 16.789 131.081Z" fill="url(#k)"/>
  <path d="M227.891 262.949c.231.271.422.547.665.803 7.407 5.436 32.109 18.815 68.07 4.604 44.222-17.464 44.36-57.816 44.36-57.816l8.72-2.835a177.769 177.769 0 0 1-2.273-16.057c-2.641-27.623 3-41.972 2.135-45.837-1.012-4.617-15.841-29.245-50.716-35.14-23.11-3.89-43.656 1.378-57.918 7.26a110.738 110.738 0 0 0-18.122 10.982 48.861 48.861 0 0 0-8.275 7.726l-.85 1.114a18.138 18.138 0 0 0-1.535 2.315c-9.816 17.216-11.351 37.951-8.734 57.712 3.679 27.835 15.659 53.791 24.473 65.169Z" fill="url(#l)"/>
  <path style="mix-blend-mode:multiply" fill-rule="evenodd" clip-rule="evenodd" d="M242.692 280.461a115.98 115.98 0 0 0 50.267 9.65c30.015-1.145 72.937-11.705 97.388-36.457 24.452-24.752 25.037-84.954 14.162-102.125a171.567 171.567 0 0 0-12.274-17.208c-4.606-3.294-9.804-4.821-15.634-2.727-21.388 7.692-14.774 80.246-14.774 80.246l-10.903.963s.227 42.246-40.997 63.439c-36.011 18.537-61.486 6.524-67.235 4.219Z" fill="url(#m)"/>
  <path fill-rule="evenodd" clip-rule="evenodd" d="M400.449 238.95c-9.05 11.119-28.873 10.476-37.222-25.791-8.348-36.267 6.299-75.402 6.299-75.402-29.835 8.362-15.17 71.318-15.17 71.318 1.033 2.613 2.023 5.026 3.046 7.282l.104.247c21.387 47.861 41.244 24.477 42.943 22.346Z" fill="url(#n)"/>
  <path fill-rule="evenodd" clip-rule="evenodd" d="M406.915 156.542c-5.215-11.984-14.427-19.166-21.543-17.772-7.116 1.394-20.877 36.554-10.765 72.116 10.111 35.562 31.197 20.076 33.528 5.547l1.471-7.935s-13.778 25.78-26.579 5.142c-14.617-23.526.831-59.243 12.34-56.705 11.508 2.538 15.663 22.923 15.663 22.923s-.643-15.363-4.115-23.316Z" fill="#53345F"/>
  <path fill-rule="evenodd" clip-rule="evenodd" d="m413.506 554.504-3.362-4.257-1.943-12.654s-24.366 16.392-43.555 17.205a51.15 51.15 0 0 0 26.107 7.991s-13.755 9.371-10.475 25.133l33.228-33.418Zm82.881-45.165 26.588 3.301 2.581 4.781s17.713 14.299 39.769 10.349c0 0-6.502-18.052-29.183-23.976l-7.347-26.557a46.208 46.208 0 0 1-9.381 21.46c-7.814 9.813-21.792 10.591-23.027 10.642Z" fill="#D9D9D9"/>
  <path fill-rule="evenodd" clip-rule="evenodd" d="m413.506 554.504 2.935 1.82-34.348 33.798-1.862-2.234 33.275-33.384Z" fill="#CAB3DA"/>
  <path style="mix-blend-mode:multiply" fill-rule="evenodd" clip-rule="evenodd" d="M364.587 554.765a51.143 51.143 0 0 0 26.106 7.991s15.53-7.262 22.813-8.252l-3.362-4.257-1.943-12.654s-24.422 16.387-43.614 17.172Z" fill="url(#o)"/>
  <path style="mix-blend-mode:multiply" fill-rule="evenodd" clip-rule="evenodd" d="m496.388 509.339 26.587 3.301a33.637 33.637 0 0 0 13.167-8.846l-7.347-26.557a46.216 46.216 0 0 1-9.38 21.46c-7.815 9.813-21.793 10.591-23.027 10.642Z" fill="url(#p)"/>
  <path d="M333.909 147.973s-1.91-10.769-3.558-13.833a46.215 46.215 0 0 0-16.976-5.876l-3.249 20.136s18.477-1.166 23.783-.427Z" fill="#fff"/>
  <path d="M227.967 263.587c.218.272.422.547.666.802 7.393 5.439 32.064 18.794 67.987 4.603 44.167-17.457 44.259-57.747 44.259-57.747l8.692-2.831a188.204 188.204 0 0 1-2.271-16.043s-86.1-61.206-143.776 6.057c3.668 27.864 15.632 53.794 24.443 65.159Z" fill="url(#q)"/>
  <path d="M334.393 219.035s-.851 9.586-4.171 15.768l-5.824-2.156s2.736-8.942 3.71-14.241l6.285.629Z" fill="#fff"/>
  <path style="mix-blend-mode:multiply" fill-rule="evenodd" clip-rule="evenodd" d="M508.768 286.137s-7.558 11.143-16.782 12.945c-9.224 1.803-12.976-7.449-12.976-7.449s.055 7.995 9.56 15.384c0 0 15.757-8.385 20.198-20.88Z" fill="url(#r)"/>
  <path style="mix-blend-mode:multiply" fill-rule="evenodd" clip-rule="evenodd" d="M198.081 339.527a50.224 50.224 0 0 0 11.2 3.479 26.928 26.928 0 0 0 1.893-17.82s-.941-1.578-2.491-3.856c0 0 1.821 9.94-10.602 18.197Z" fill="url(#s)"/>
  <path fill-rule="evenodd" clip-rule="evenodd" d="M347.918 335.151a14.844 14.844 0 0 0 8.837 7.19 14.86 14.86 0 0 0 11.33-1.187 14.823 14.823 0 0 0 7.196-8.835 14.826 14.826 0 0 0-1.192-11.332 14.856 14.856 0 0 0-8.837-7.19 14.856 14.856 0 0 0-11.33 1.186 14.844 14.844 0 0 0-7.19 8.837 14.86 14.86 0 0 0 1.186 11.331Z" fill="#684D73"/>
  <path fill-rule="evenodd" clip-rule="evenodd" d="M352.777 332.531a9.315 9.315 0 0 0 17.114-1.809 9.305 9.305 0 0 0-.753-7.089 9.32 9.32 0 0 0-12.629-3.731 9.317 9.317 0 0 0-3.732 12.629Z" fill="url(#t)"/>
  <path fill-rule="evenodd" clip-rule="evenodd" d="M403.726 283.248s-11.54 17.419-24.238-6.104c0 0 17.532 4.639 24.238 6.104Z" fill="#684D73"/>
  <path d="M371.19 487.074a221.269 221.269 0 0 0 29.709-6.524l-.227-.727c-.489.152-48.9 14.635-65.206 3.546l-.422.625c7.857 5.401 22.619 4.994 36.146 3.08Zm66.32-12.245.757-.107a87.45 87.45 0 0 1-1.301-26.929c2.563-22.937 27.811-54.439 28.057-54.75l-.593-.482c-.245.311-25.635 31.985-28.221 55.146a88.573 88.573 0 0 0 1.301 27.122Zm40.295-135.27.596-.471c-31.844-40.53-13.037-58.273-12.853-58.437l-.494-.565c-.209.181-5.045 4.619-5.907 14.22-.85 8.814 1.814 23.835 18.658 45.253Zm-236.346 30.352c14.534-29.116-17.596-57.146-17.911-57.418l-.499.567c.316.286 32.006 27.937 17.74 56.504l.67.347Z" fill="#53345F"/>
  <path d="M378.113 368.808a39.61 39.61 0 0 0 6.057 8.084l5.838-3.986a17.762 17.762 0 0 0-7.38-7.097l-4.515 2.999Zm74.419-81.554a15.42 15.42 0 0 1-7.161 1.468l-2.145 3.561s5.751 2.318 9.098-1.137l.208-3.892Zm39.109 153.944a21.17 21.17 0 0 1 7.18 7.153l-3.723 4.404-6.492-7.36 3.035-4.197ZM213.422 311.042a12.103 12.103 0 0 1 5.964 4.51l4.877.234a18.78 18.78 0 0 0-3.428-2.964c-1.957-1.255-7.413-1.78-7.413-1.78ZM343.913 496.84s-1.045 12.112.992 17.536l-5.034.602a36.005 36.005 0 0 1-1.682-16.955l5.724-1.183Zm-26.939-389.548s-29.569-6.329-47.441-3.137c0 0 62.321-17.487 47.441 3.137Zm45.737 57.577-11.044-1.307-.9 11.967 10.522.345 1.422-11.005Z" fill="#fff"/>
  <g clip-path="url(#u)">
    <path style="mix-blend-mode:screen" d="m624.797 111.23 39.763 19.951 7.303-16.95-37.406-20.562s-7.932 12.328-9.66 17.561Z" fill="url(#v)"/>
    <path fill-rule="evenodd" clip-rule="evenodd" d="m618.133 76.416 2.417-7.447s13.053 5.625 22.592 21.276l-.346.642-18.393-10.566-.775 1.332-5.495-5.237Z" fill="url(#w)"/>
    <path fill-rule="evenodd" clip-rule="evenodd" d="m601.491 107.401-5.022 6.281s11.883 7.797 30.199 7.147l.346-.642-18.939-9.518.685-1.381-7.269-1.887Z" fill="url(#x)"/>
    <path fill-rule="evenodd" clip-rule="evenodd" d="M537.364 52.94c-4.727 8.78 8.782 33.786 28.847 43.157 20.064 9.37 53.515 15.691 53.515 15.691l6.166-11.188 5.945-11.305s-23.71-24.448-42.562-36.037c-18.852-11.59-47.216-9.038-51.911-.317Z" fill="url(#y)"/>
    <path fill-rule="evenodd" clip-rule="evenodd" d="M619.73 111.794s5.762-13.41 12.111-22.494c0 0-5.532 13.227-12.111 22.494Z" fill="#31165F"/>
    <path fill-rule="evenodd" clip-rule="evenodd" d="M539.821 69.478s2.798-14.532 14.082-23.725c0 0-13.053.849-16.539 7.188-3.137 5.703 2.457 16.537 2.457 16.537Z" fill="url(#z)"/>
    <path d="M554.014 45.893c-10.602 8.467-13.977 23.456-14.018 23.62l-.347-.073c.03-.152 3.44-15.28 14.147-23.825l.218.278Z" fill="#53345F"/>
    <path fill-rule="evenodd" clip-rule="evenodd" d="m536.459 56.266 3.868-6.399s-4.145 2.066-3.868 6.4Z" fill="#53345F"/>
    <path fill-rule="evenodd" clip-rule="evenodd" d="M536.641 55.183a15.95 15.95 0 0 1 1.896-3.75s-3.481-.941-4.196.128c-.714 1.07 2.3 3.622 2.3 3.622Z" fill="url(#A)"/>
    <path style="mix-blend-mode:multiply" opacity=".5" fill-rule="evenodd" clip-rule="evenodd" d="M598.036 106.824s4.065-22.287 16.125-34.329c7.12 6.246 17.678 16.808 17.678 16.808s-5.823 7.953-12.11 22.493c.002-.002-11.263-1.562-21.693-4.972Z" fill="url(#B)"/>
    <path style="mix-blend-mode:multiply" opacity=".5" fill-rule="evenodd" clip-rule="evenodd" d="M551.035 61.249c-3.65 8.24 2.641 18.918 10.588 23.663 7.946 4.744 16.975-.104 21.073-8.257 4.098-8.153 2.226-17.755-7.192-21.623-8.506-3.508-20.413-2.942-24.469 6.217Z" fill="url(#C)"/>
    <path fill-rule="evenodd" clip-rule="evenodd" d="M549.738 60.55c-3.65 8.242 2.641 18.918 10.587 23.663 7.947 4.745 16.976-.104 21.077-8.255 4.1-8.15 2.225-17.755-7.195-21.624-8.503-3.507-20.41-2.94-24.469 6.217Z" fill="#31165F"/>
    <path fill-rule="evenodd" clip-rule="evenodd" d="M548.834 60.064c-3.65 8.24 2.641 18.917 10.587 23.662 7.946 4.745 16.976-.104 21.076-8.255 4.101-8.15 2.226-17.755-7.194-21.624-8.504-3.507-20.41-2.94-24.469 6.217Z" fill="url(#D)"/>
    <path fill-rule="evenodd" clip-rule="evenodd" d="M552.022 61.102c-3.393 7.33 2.023 14.839 8.236 18.552 6.213 3.713 13.27-.12 16.492-6.525 3.222-6.404 1.774-13.923-5.574-16.95-6.664-2.746-15.623-2.74-19.154 4.923Z" fill="#A6345F"/>
    <path fill-rule="evenodd" clip-rule="evenodd" d="M578.027 65.248a13.376 13.376 0 0 1-1.427 7.822c-3.066 6.095-10.463 10.077-16.367 6.548a18.73 18.73 0 0 1-5.235-4.641c-2.83-3.674-4.094-8.44-1.925-13.349 3.183-7.267 11.901-7.293 18.227-4.69 4.06 1.694 6.221 4.815 6.727 8.31Z" fill="url(#E)"/>
    <path d="m581.415 75.94-.085.158 22.612 12.174.085-.158-22.612-12.174Z" fill="#53345F"/>
    <path d="m598.111 106.835-.174-.036c5.472-25.057 16.046-34.279 16.15-34.37l.116.136c-.096.098-10.621 9.288-16.092 34.27Zm-8.446-2.349-.177.017c-.01-.089-.7-9.125 5.075-21.375l.155.084c-5.765 12.197-5.06 21.186-5.053 21.274Z" fill="#53345F"/>
    <path fill-rule="evenodd" clip-rule="evenodd" d="m621.659 94.334-9.928-4.937.778-3.062 10.289 5.882-1.139 2.117Z" fill="#31165F"/>
    <path fill-rule="evenodd" clip-rule="evenodd" d="M620.929 110.041s4.33-10.27 10.327-19.39l4.053 2.944-10.293 17.968-4.087-1.522Z" fill="url(#F)"/>
    <path opacity=".5" fill-rule="evenodd" clip-rule="evenodd" d="M622.997 110.804a19.392 19.392 0 0 1 2.464-8.591c2.452-4.337 8.914-9.306 8.914-9.306l-3.119-2.256s-6.625 9.894-10.327 19.39l2.068.763Z" fill="#31165F"/>
    <path d="M558.091 58.731a18.683 18.683 0 0 1 6.03-.814l-.052-1.996s-3.419-.331-5.58 1.326l-.398 1.484Zm5.314 19.763 2.874-.078.056 1.656-2.322-.08-.608-1.498Z" fill="#fff"/>
    <path style="mix-blend-mode:multiply" opacity=".5" fill-rule="evenodd" clip-rule="evenodd" d="M542.403 74.148s.35-15.849 15.394-28.653l-3.894.258s-9.37 7.02-14.082 23.725l2.582 4.67Z" fill="url(#G)"/>
    <path fill-rule="evenodd" clip-rule="evenodd" d="M595.797 84.533a.78.78 0 0 1 .238.198" fill="url(#H)"/>
    <path fill-rule="evenodd" clip-rule="evenodd" d="M595.721 84.674c.145.083.251.22.297.38" fill="url(#I)"/>
    <path fill-rule="evenodd" clip-rule="evenodd" d="M592.364 82.684a.798.798 0 0 1 .377.475" fill="url(#J)"/>
    <path fill-rule="evenodd" clip-rule="evenodd" d="M592.288 82.825c.145.084.251.22.296.381" fill="url(#K)"/>
    <path d="M563.052 82.758a.795.795 0 0 0-.316-1.078.794.794 0 0 0-1.074.329" fill="#31165F"/>
    <path fill-rule="evenodd" clip-rule="evenodd" d="M562.658 81.817c.145.083.251.22.297.38" fill="url(#L)"/>
    <path fill-rule="evenodd" clip-rule="evenodd" d="M553.552 75.143a.794.794 0 0 1 .317 1.078.808.808 0 0 1-.469.389.798.798 0 0 1-.607-.057.798.798 0 0 1-.314-1.08.795.795 0 0 1 1.073-.33Z" fill="#31165F"/>
    <path fill-rule="evenodd" clip-rule="evenodd" d="M553.472 75.293a.641.641 0 0 1-.609 1.13.641.641 0 0 1 .609-1.13Z" fill="url(#M)"/>
    <path fill-rule="evenodd" clip-rule="evenodd" d="M574.056 79.278a.794.794 0 0 1 .316 1.078.797.797 0 0 1-1.074.33.795.795 0 0 1-.316-1.078.8.8 0 0 1 .468-.388.794.794 0 0 1 .606.058Z" fill="#31165F"/>
    <path fill-rule="evenodd" clip-rule="evenodd" d="M573.975 79.428a.643.643 0 0 1-.608 1.13.643.643 0 0 1 .608-1.13Z" fill="url(#N)"/>
    <path fill-rule="evenodd" clip-rule="evenodd" d="M580.762 68.827a.798.798 0 0 1-.152 1.465.8.8 0 0 1-.606-.058.795.795 0 0 1-.316-1.078.79.79 0 0 1 .777-.419c.104.01.205.04.297.09Z" fill="#31165F"/>
    <path fill-rule="evenodd" clip-rule="evenodd" d="M580.681 68.977a.64.64 0 0 1-.609 1.13.624.624 0 0 1-.241-.859.638.638 0 0 1 .368-.315.623.623 0 0 1 .482.044Z" fill="url(#O)"/>
    <path d="M578.561 59.029a.794.794 0 0 0-.316-1.078.794.794 0 0 0-1.074.33.794.794 0 0 0 .316 1.077.794.794 0 0 0 1.074-.329Z" fill="#31165F"/>
    <path fill-rule="evenodd" clip-rule="evenodd" d="M578.168 58.092a.643.643 0 0 1-.608 1.13.64.64 0 0 1 .608-1.13Z" fill="url(#P)"/>
    <path fill-rule="evenodd" clip-rule="evenodd" d="M565.307 52.444a.798.798 0 0 1 .382.473.786.786 0 0 1-.065.605.797.797 0 0 1-1.074.329.796.796 0 0 1-.318-1.075.79.79 0 0 1 1.075-.332Z" fill="#31165F"/>
    <path fill-rule="evenodd" clip-rule="evenodd" d="M565.231 52.585a.643.643 0 0 1-.608 1.13.643.643 0 0 1 .608-1.13Z" fill="url(#Q)"/>
    <path fill-rule="evenodd" clip-rule="evenodd" d="M555.963 54.568a.805.805 0 0 1 .382.473.806.806 0 0 1-.535.99.796.796 0 0 1-.605-.056.794.794 0 0 1-.316-1.078.785.785 0 0 1 .777-.42.8.8 0 0 1 .297.09Z" fill="#31165F"/>
    <path fill-rule="evenodd" clip-rule="evenodd" d="M555.882 54.717a.643.643 0 0 1-.608 1.13.643.643 0 0 1 .608-1.13Z" fill="url(#R)"/>
    <path fill-rule="evenodd" clip-rule="evenodd" d="M549.94 63.371a.797.797 0 0 1 .121 1.319.797.797 0 0 1-.879.088.794.794 0 0 1-.411-.782.799.799 0 0 1 1.169-.624Z" fill="#31165F"/>
    <path fill-rule="evenodd" clip-rule="evenodd" d="M549.859 63.521a.63.63 0 0 1 .302.379.61.61 0 0 1-.061.48.62.62 0 0 1-.849.271.643.643 0 0 1 .608-1.13Z" fill="url(#S)"/>
    <path fill-rule="evenodd" clip-rule="evenodd" d="m627.007 120.198.279-.517-18.966-9.544-.257.525 18.944 9.536Zm-2.602-39.888-.297.504 18.498 10.412.189-.35-18.39-10.565Z" fill="#6F2561"/>
    <path fill-rule="evenodd" clip-rule="evenodd" d="m608.251 84.772.998-1.854 28.331 17.644-.695 1.292-28.634-17.082Z" fill="url(#T)"/>
    <path fill-rule="evenodd" clip-rule="evenodd" d="m608.251 84.772 5.796 4.785 22.838 12.297-28.634-17.082Z" fill="#FF4C61"/>
    <path opacity=".5" fill-rule="evenodd" clip-rule="evenodd" d="m610.12 83.46 21.721 5.84-2.656 4.351 4.626 2.564-.806 1.498L610.12 83.46Z" fill="#31165F"/>
    <path d="M547.243 78.576s-2.117-.902-2.663-2.866l.618-1.027a38.657 38.657 0 0 1 2.331 3.362l-.286.531Z" fill="#fff"/>
    <path d="m609.205 69.838-7.679-6.635.29-.54 7.733 6.537-.344.638Z" fill="#fff" style="mix-blend-mode:soft-light"/>
    <path fill-rule="evenodd" clip-rule="evenodd" d="M571.382 46.577s1.094-3.636 3.606.796l-3.606-.796Z" fill="url(#U)"/>
    <path fill-rule="evenodd" clip-rule="evenodd" d="M550.412 84.482s-.745 3.517 2.528 2.495l-2.528-2.495Z" fill="url(#V)"/>
    <path fill-rule="evenodd" clip-rule="evenodd" d="M621.121 108.446s-30.394-5.459-51.464-12.535l-.041 1.043s31.745 11.966 50.317 14.369l1.188-2.877Z" fill="#fff" style="mix-blend-mode:soft-light" opacity=".5"/>
    <path fill-rule="evenodd" clip-rule="evenodd" d="m599.705 61.84-4.853-3.87.277-.515 4.853 3.87-.277.515Zm-9.636 38.81s.546-6.938 2.911-12.55c0 0-1.688 5.951-2.911 12.55Zm-6.454-23.759 19.892 10.538s-6.997-4.219-19.892-10.538Zm15.785 25.437s3.312-15.44 12.686-26.9c.014.007-7.403 8.239-12.686 26.9Z" fill="#fff" style="mix-blend-mode:soft-light"/>
    <path fill-rule="evenodd" clip-rule="evenodd" d="M548.96 71.325s1.703-1.43-1.08-4.303a18.202 18.202 0 0 0 1.08 4.303Z" fill="#fff"/>
    <path fill-rule="evenodd" clip-rule="evenodd" d="M581.257 73.825s2.126-4.49.227-12.183c-.014-.008 2.586 5.394-.227 12.182Zm-4.688-.392s4.08-2.724 1.763-7.336c.008.004.706 2.994-1.763 7.336Z" fill="#fff" style="mix-blend-mode:soft-light"/>
    <path fill-rule="evenodd" clip-rule="evenodd" d="M584.657 78.746c.031.308.009.858.39.968.179.03.359.05.54.061.158.03.312.077.461.139.244.101.511.13.771.084.167-.046.116-.215.042-.342a.898.898 0 0 0-.287-.367 2.929 2.929 0 0 1-.501-.35c-.059-.053-.092-.14-.156-.196a1.45 1.45 0 0 0-.283-.152.843.843 0 0 0-.977.155Zm2.342 2.449a.24.24 0 0 1-.205-.176c.183-.339.914-.098.87.286-.048.448-.569.226-.726-.004l.061-.106Zm.875 8.501c.01-.22-.027-.43.123-.6a.875.875 0 0 1 .478-.272c.227-.035.46-.02.681.042.111.004.218.04.308.104.337.316.366.926.289 1.34a3.188 3.188 0 0 1-.177.707c-.08.15-.127.318-.181.479a1.019 1.019 0 0 1-.158.388 1.185 1.185 0 0 1-.313.196 1.006 1.006 0 0 1-.942-.018c-.501-.296-.577-1.135-.56-1.669.018-.431.101-1.094.452-.697Zm.178-1.996c.119.126.141.192.298.124a.408.408 0 0 0 .184-.288c.038-.212-.11-.587-.362-.559-.127.02-.38.09-.467.19a.601.601 0 0 0 .234.738l.113-.205Zm8.647-4.078a.762.762 0 0 0 .22.155l.596.32c.373.202.718.46 1.1.666.276.14.563.256.858.349.151.055.304.102.46.142.016-.032-.057-.078-.08-.11-.079-.104-.18-.194-.25-.301a11.822 11.822 0 0 0-.498-.727.696.696 0 0 1-.102-.128c-.028-.063-.044-.141-.068-.205a1.194 1.194 0 0 0-.184-.336 2.01 2.01 0 0 0-.722-.501c-.087-.047-.183-.066-.269-.109a2.576 2.576 0 0 0-.292-.135 1.732 1.732 0 0 0-.67-.069c-.26.01-.679-.045-.875.184-.096.11.017.232.108.307.091.074.245.16.364.25.12.09.341.29.304.248Zm-1.62-1.222c-.063-.107-.211-.285-.085-.41.126-.126.306-.021.409.052.239.18-.202.376-.371.256l.047.102Zm3.018-1.692a.54.54 0 0 0 .267.235.32.32 0 0 0 .401-.19c.129-.24.168-.433-.038-.606a.712.712 0 0 0-.582-.077.384.384 0 0 0-.186.156c-.079.147-.015.272.063.398l.075.084Zm10.381-1.395c.014-.456.083-.908.204-1.348.144-.37.308-.732.493-1.083a11.76 11.76 0 0 0 .438-1.587c.098-.472.31-.914.619-1.285a1.454 1.454 0 0 1 1.026-.504c.238.01.473.06.694.147.099.053.2.082.299.121a.918.918 0 0 1 .188.065c.093.05.072.09.024.177a.844.844 0 0 1-.343.38 2.6 2.6 0 0 0-.648.628c-.182.23-.372.441-.539.683l-.498.702c-.146.198-.299.393-.444.595-.146.203-.263.413-.392.62-.13.207-.192.356-.288.534-.061.113-.138.21-.199.323-.047.087-.1.17-.16.25a2.946 2.946 0 0 0-.135.25 2.156 2.156 0 0 1-.339.332Zm-.313-3.135c.016.078.016.173.076.223a.425.425 0 0 0 .11.06c.178.048.331-.216.401-.346.219-.372.289-.814.196-1.236a.964.964 0 0 0-.543-.657c-.372-.109-.753.153-.991.425-.238.273-.456.659-.352 1.006a.566.566 0 0 0 .197.31c.091.044.183.082.278.114.119.064.187.18.337.181a.485.485 0 0 0 .291-.08Zm1.192-2.154a.184.184 0 0 1-.104-.046.18.18 0 0 1-.058-.1.196.196 0 0 1 .027-.24.276.276 0 0 1 .206-.089.27.27 0 0 1 .202.097.327.327 0 0 1 .044.153.31.31 0 0 1-.035.155.252.252 0 0 1-.285.138l.003-.068Zm-6.258-6.967a.539.539 0 0 0 .069.402.196.196 0 0 0 .172.125c.256-.002.501-.096.693-.264a.633.633 0 0 0 .201-.454 1.47 1.47 0 0 0-.131-.434 2.72 2.72 0 0 0-.168-.365.516.516 0 0 0-.481-.372.73.73 0 0 0-.569.38c-.063.149-.089.31-.076.472.011.17-.008.313.29.51Zm.409 1.164a.961.961 0 0 1 .252-.265c.048.026.105-.02.15.033.044.053-.032.195-.068.255a.37.37 0 0 1-.211.168c-.033.007-.172.049-.143-.026l.02-.165Zm.999 13.146c.085.133.18.283.381.234a.463.463 0 0 0 .278-.437c.009-.09.016-.192-.06-.247-.075-.055-.172-.093-.257-.138-.2-.108-.232-.395-.523-.315a.496.496 0 0 0-.309.282c-.071.228.085.447.219.61l.271.011Zm-1.42 20.394a1.43 1.43 0 0 0 .001.784l.088.048a.642.642 0 0 0 .469.252c.584.005.789-.504 1.022-.944.233-.439.625-1.038-.134-1.166-.336-.053-.898-.18-1.229-.005-.178.093-.17.193-.195.361a1.851 1.851 0 0 0-.041.707l.019-.037Zm3.612-4.981c-.085-.14-.272-.375-.193-.57.079-.194.179-.162.313-.229.294-.147.637-.255.81.141a.73.73 0 0 1-.094.635c-.112.14-.44.302-.593.154l-.243-.13Zm-28.394-44.187c.26.362.272.387.682.48.306.107.634.138.955.088.435-.13.551-.524.807-.823a.748.748 0 0 0 .247-.702 2.806 2.806 0 0 0-.37-.95 3.716 3.716 0 0 0-2.736-1.56c-.663-.048-1.47-.02-1.97.503a1.686 1.686 0 0 0-.43 1.667 1.883 1.883 0 0 0 1.294 1.149l.417.093c.165.069.323.154.472.254.18.064.382.049.632-.2Zm.84 1.71c.467-.19.375-.163.749-.038.162.058.227.013.35.123a.587.587 0 0 1 .07.654c-.077.144-.48.215-.618.213a.433.433 0 0 1-.409-.249l-.142-.703Zm-18.49 34.152c.245.223.548.513.933.298.256-.15.304-.565.26-.84a2.28 2.28 0 0 0-.754-1.208c-.345-.252-.984-.013-1.212.31-.464.657.435 1.622.923 1.954l-.15-.514Zm2.949 2.215c-.104-.005-.432.036-.519-.047-.048-.026-.018-.1-.046-.145a.623.623 0 0 1-.094-.502.823.823 0 0 1 .797-.6.489.489 0 0 1 .538.356.645.645 0 0 1-.386.77l-.29.167ZM617.6 79.614c.388.474.921.808 1.517.952.379.116.854.31 1.206.022.823-.676-.66-2.335-1.162-2.813a4.294 4.294 0 0 0-1.517-.944c-.339-.11-1.083-.197-1.405.023-.415.284-.412.872-.228 1.263.402.945 1.396 1.28 2.06 1.969l-.471-.472Zm-.362.381a2.55 2.55 0 0 0-.199.694c.01.13.024.334.13.435a.53.53 0 0 0 .511.038.385.385 0 0 0 .262-.256c.012-.096-.063-.22-.103-.303a2.157 2.157 0 0 0-.277-.426 1.01 1.01 0 0 0-.153-.189c-.101-.083-.182-.028-.285-.047l.114.054Zm4.232 2.909.288-.21c.102.081.255.109.269.258a.64.64 0 0 1-.175.38.32.32 0 0 1-.392.051c-.153-.082-.137-.26-.088-.411l.098-.068Zm-1.197 16.746a.348.348 0 0 0 .391.14.502.502 0 0 0 .379-.561c-.058-.36-.347-.88-.726-.988-.236-.07-.635.077-.625.363 0 .16.018.321.056.478.097.23.268.423.486.546l.039.021Zm-65.086-48.923c.04.15.042.22.156.314a.64.64 0 0 0 .444.184 1.73 1.73 0 0 0 .983-.615.931.931 0 0 0 .252-.786 1.155 1.155 0 0 0-.468-.843.79.79 0 0 0-.916-.107 2.465 2.465 0 0 0-.809.603.809.809 0 0 0-.146.731c.051.25.19.616.504.52Zm2.228-1.734c-.085-.046-.184-.1-.162-.193a.63.63 0 0 1 .383-.326.542.542 0 0 1 .383.053.371.371 0 0 1 .106.243.324.324 0 0 1-.152.344c-.084.047-.273.175-.362.09l-.196-.211Zm-14.374 1.217a.602.602 0 0 0 .401.113c.261-.019.514-.097.739-.229.307-.154.556-.404.711-.71a.661.661 0 0 0-.212-.69 1.314 1.314 0 0 0-.878-.218 1.747 1.747 0 0 0-1.313.922c-.248.577.558 1.037.552.811Zm3.213-1.358a.488.488 0 0 1-.265.018c.007-.102-.067-.175-.053-.28a.416.416 0 0 1 .178-.25.385.385 0 0 1 .386-.04c.141.075.147.14.144.288-.003.148.007.135-.105.195-.068.043-.14.079-.215.107l-.07-.038Z" fill="#fff" style="mix-blend-mode:soft-light" opacity=".36"/>
    <path fill-rule="evenodd" clip-rule="evenodd" d="M599.482 100.855c.443.239.664.697.489 1.022-.175.325-.678.393-1.122.154-.444-.239-.661-.695-.486-1.02.175-.325.675-.394 1.119-.156Z" fill="url(#W)"/>
    <path fill-rule="evenodd" clip-rule="evenodd" d="M599.415 100.98c.351.188.522.547.384.804-.139.257-.532.311-.883.123-.35-.189-.522-.547-.383-.805.138-.257.535-.309.882-.122Z" fill="#fff"/>
    <path fill-rule="evenodd" clip-rule="evenodd" d="M610.455 76.46a.835.835 0 0 1 .453 1.082.838.838 0 0 1-1.153.218.84.84 0 0 1-.455-1.084.841.841 0 0 1 1.155-.216Z" fill="url(#X)"/>
    <path fill-rule="evenodd" clip-rule="evenodd" d="M610.38 76.598a.66.66 0 0 1 .358.852.662.662 0 0 1-.908.171.663.663 0 0 1-.358-.852.662.662 0 0 1 .908-.17Z" fill="#fff"/>
    <path d="M604.787 88.626a.92.92 0 0 0-.367-1.248.92.92 0 0 0-1.244.38.92.92 0 0 0 .368 1.248.92.92 0 0 0 1.243-.38Z" fill="url(#Y)"/>
    <path fill-rule="evenodd" clip-rule="evenodd" d="M604.327 87.55a.727.727 0 0 1-.139 1.335.727.727 0 0 1-.552-.052.725.725 0 0 1-.287-.982.725.725 0 0 1 .978-.3Z" fill="#fff"/>
    <path style="mix-blend-mode:screen" d="M604.807 82.611a5.288 5.288 0 0 1 4.594 5.962 5.397 5.397 0 0 1-5.966 4.683 5.29 5.29 0 0 1-4.462-3.887 5.283 5.283 0 0 1-.132-2.075 5.393 5.393 0 0 1 5.966-4.683Z" fill="url(#Z)"/>
    <path style="mix-blend-mode:screen" d="M573.391 42.169a4.223 4.223 0 0 1 3.668 4.756 4.307 4.307 0 0 1-4.764 3.737 4.226 4.226 0 0 1-3.667-4.759 4.312 4.312 0 0 1 4.763-3.734Z" fill="url(#aa)"/>
    <path style="mix-blend-mode:screen" d="M537.221 48.698a4.225 4.225 0 0 1 3.668 4.756 4.3 4.3 0 0 1-4.764 3.737 4.23 4.23 0 0 1-2.827-1.612 4.218 4.218 0 0 1-.841-3.144 4.308 4.308 0 0 1 4.764-3.737Z" fill="url(#ab)"/>
    <path style="mix-blend-mode:screen" d="M551.478 83.776a2.188 2.188 0 0 1 1.461.833 2.192 2.192 0 0 1 .435 1.624 2.229 2.229 0 0 1-2.462 1.933 2.175 2.175 0 0 1-1.461-.834 2.197 2.197 0 0 1-.434-1.626 2.228 2.228 0 0 1 2.461-1.93Z" fill="url(#ac)"/>
    <path style="mix-blend-mode:screen" d="M610.17 75.439a2.048 2.048 0 0 1 1.731 1.498c.07.261.088.534.052.803a2.076 2.076 0 0 1-2.302 1.804 2.032 2.032 0 0 1-1.365-.778 2.038 2.038 0 0 1-.406-1.517 2.076 2.076 0 0 1 2.29-1.81Z" fill="url(#ad)"/>
    <path style="mix-blend-mode:screen" d="M599.228 99.77a2.038 2.038 0 0 1 1.77 2.299 2.083 2.083 0 0 1-2.299 1.805 2.059 2.059 0 0 1-.762-.252 2.051 2.051 0 0 1-.96-1.246 2.041 2.041 0 0 1-.051-.801 2.08 2.08 0 0 1 2.302-1.804Z" fill="url(#ae)"/>
    --&gt;
  </g>
  <defs>
    <linearGradient id="b" x1="291.577" y1="337.249" x2="250.117" y2="343.2" gradientUnits="userSpaceOnUse">
      <stop stop-color="#AA367C"/>
      <stop offset="1" stop-color="#4A2FBD"/>
    </linearGradient>
    <linearGradient id="c" x1="329.052" y1="316.685" x2="274.373" y2="346.197" gradientUnits="userSpaceOnUse">
      <stop stop-color="#9579A7"/>
      <stop offset="1" stop-color="#fff"/>
    </linearGradient>
    <linearGradient id="g" x1="525.451" y1="459.275" x2="447.527" y2="470.638" gradientUnits="userSpaceOnUse">
      <stop stop-color="#AA367C"/>
      <stop offset="1" stop-color="#4A2FBD"/>
    </linearGradient>
    <linearGradient id="h" x1="407.466" y1="509.787" x2="334.769" y2="520.482" gradientUnits="userSpaceOnUse">
      <stop stop-color="#AA367C"/>
      <stop offset="1" stop-color="#4A2FBD"/>
    </linearGradient>
    <linearGradient id="i" x1="441.315" y1="314.65" x2="395.787" y2="321.181" gradientUnits="userSpaceOnUse">
      <stop stop-color="#AA367C"/>
      <stop offset="1" stop-color="#4A2FBD"/>
    </linearGradient>
    <linearGradient id="j" x1="508.892" y1="353.989" x2="335.02" y2="447.833" gradientUnits="userSpaceOnUse">
      <stop stop-color="#fff"/>
      <stop offset="1" stop-color="#9579A7"/>
    </linearGradient>
    <linearGradient id="k" x1="351.441" y1="279.093" x2="256.552" y2="103.285" gradientUnits="userSpaceOnUse">
      <stop stop-color="#D1BDE5"/>
      <stop offset="1" stop-color="#fff"/>
    </linearGradient>
    <linearGradient id="l" x1="362.453" y1="170.661" x2="185.061" y2="196.392" gradientUnits="userSpaceOnUse">
      <stop stop-color="#AA367C"/>
      <stop offset="1" stop-color="#4A2FBD"/>
    </linearGradient>
    <linearGradient id="m" x1="417.902" y1="176.17" x2="238.643" y2="272.921" gradientUnits="userSpaceOnUse">
      <stop stop-color="#fff"/>
      <stop offset="1" stop-color="#9579A7"/>
    </linearGradient>
    <linearGradient id="n" x1="398.339" y1="241.982" x2="347.985" y2="148.685" gradientUnits="userSpaceOnUse">
      <stop stop-color="#D1BDE5"/>
      <stop offset="1" stop-color="#F4DBEE"/>
    </linearGradient>
    <linearGradient id="o" x1="410.965" y1="542.749" x2="370.063" y2="564.825" gradientUnits="userSpaceOnUse">
      <stop stop-color="#fff"/>
      <stop offset="1" stop-color="#9579A7"/>
    </linearGradient>
    <linearGradient id="p" x1="535.63" y1="489.793" x2="497.11" y2="510.584" gradientUnits="userSpaceOnUse">
      <stop stop-color="#fff"/>
      <stop offset="1" stop-color="#9579A7"/>
    </linearGradient>
    <linearGradient id="q" x1="357.554" y1="202.526" x2="190.46" y2="227.008" gradientUnits="userSpaceOnUse">
      <stop stop-color="#5A30B2"/>
      <stop offset="1" stop-color="#AA367C"/>
      <stop offset="1" stop-color="#4A2FBD"/>
    </linearGradient>
    <linearGradient id="r" x1="508.65" y1="285.856" x2="482.104" y2="300.184" gradientUnits="userSpaceOnUse">
      <stop stop-color="#fff"/>
      <stop offset="1" stop-color="#9579A7"/>
    </linearGradient>
    <linearGradient id="s" x1="213.606" y1="329.625" x2="197.472" y2="338.333" gradientUnits="userSpaceOnUse">
      <stop stop-color="#9579A7"/>
      <stop offset="1" stop-color="#fff"/>
    </linearGradient>
    <linearGradient id="t" x1="371.166" y1="325.643" x2="349.432" y2="328.801" gradientUnits="userSpaceOnUse">
      <stop stop-color="#AA367C"/>
      <stop offset="1" stop-color="#4A2FBD"/>
    </linearGradient>
    <linearGradient id="v" x1="670.171" y1="121.012" x2="630.746" y2="99.786" gradientUnits="userSpaceOnUse">
      <stop stop-opacity="0"/>
      <stop offset="1" stop-color="#106D90"/>
    </linearGradient>
    <linearGradient id="w" x1="644.653" y1="87.425" x2="618.257" y2="73.214" gradientUnits="userSpaceOnUse">
      <stop stop-color="#A43440"/>
      <stop offset="1" stop-color="#C73634"/>
    </linearGradient>
    <linearGradient id="x" x1="625.15" y1="123.649" x2="598.754" y2="109.437" gradientUnits="userSpaceOnUse">
      <stop stop-color="#A43440"/>
      <stop offset="1" stop-color="#C73634"/>
    </linearGradient>
    <linearGradient id="A" x1="537.636" y1="53.335" x2="534.338" y2="51.56" gradientUnits="userSpaceOnUse">
      <stop stop-color="#FFFF18"/>
      <stop offset="1" stop-color="#FF7400"/>
    </linearGradient>
    <linearGradient id="E" x1="576.192" y1="73.875" x2="553.134" y2="61.46" gradientUnits="userSpaceOnUse">
      <stop stop-color="#FFFF29"/>
      <stop offset="1" stop-color="#FF7E59"/>
    </linearGradient>
    <linearGradient id="H" x1="596.113" y1="85.611" x2="594.723" y2="84.862" gradientUnits="userSpaceOnUse">
      <stop stop-color="#8DC7FF"/>
      <stop offset=".32" stop-color="#5C4D86"/>
    </linearGradient>
    <linearGradient id="J" x1="592.683" y1="83.763" x2="591.29" y2="83.013" gradientUnits="userSpaceOnUse">
      <stop stop-color="#8DC7FF"/>
      <stop offset=".32" stop-color="#5C4D86"/>
    </linearGradient>
    <linearGradient id="T" x1="637.732" y1="100.28" x2="608.403" y2="84.489" gradientUnits="userSpaceOnUse">
      <stop stop-color="#A43411"/>
      <stop offset="1" stop-color="#C73634"/>
    </linearGradient>
    <linearGradient id="U" x1="572.922" y1="47.406" x2="573.868" y2="45.648" gradientUnits="userSpaceOnUse">
      <stop stop-color="#FFFF18"/>
      <stop offset="1" stop-color="#FF7400"/>
    </linearGradient>
    <linearGradient id="V" x1="551.023" y1="86.943" x2="551.913" y2="85.29" gradientUnits="userSpaceOnUse">
      <stop stop-color="#FFFF18"/>
      <stop offset="1" stop-color="#FF7400"/>
    </linearGradient>
    <linearGradient id="W" x1="599.971" y1="101.877" x2="598.363" y2="101.011" gradientUnits="userSpaceOnUse">
      <stop stop-color="#8DC7FF"/>
      <stop offset=".32" stop-color="#5C4D86"/>
    </linearGradient>
    <linearGradient id="X" x1="610.913" y1="77.545" x2="609.306" y2="76.679" gradientUnits="userSpaceOnUse">
      <stop stop-color="#8DC7FF"/>
      <stop offset=".32" stop-color="#5C4D86"/>
    </linearGradient>
    <linearGradient id="Y" x1="604.787" y1="88.626" x2="603.179" y2="87.76" gradientUnits="userSpaceOnUse">
      <stop stop-color="#8DC7FF"/>
      <stop offset=".32" stop-color="#5C4D86"/>
    </linearGradient>
    <radialGradient id="a" cx="0" cy="0" r="1" gradientUnits="userSpaceOnUse" gradientTransform="rotate(151.643 92.606 200.37) scale(52.3805)">
      <stop stop-color="#F4DBEE"/>
      <stop offset="1" stop-color="#D1BDE5"/>
    </radialGradient>
    <radialGradient id="d" cx="0" cy="0" r="1" gradientUnits="userSpaceOnUse" gradientTransform="rotate(151.643 103.921 294.374) scale(55.8371)">
      <stop stop-color="#F4F1FF"/>
      <stop offset="1" stop-color="#D1BDE5"/>
    </radialGradient>
    <radialGradient id="e" cx="0" cy="0" r="1" gradientUnits="userSpaceOnUse" gradientTransform="rotate(151.643 176.46 205.95) scale(57.1759)">
      <stop stop-color="#F4DBEE"/>
      <stop offset="1" stop-color="#D1BDE5"/>
    </radialGradient>
    <radialGradient id="f" cx="0" cy="0" r="1" gradientUnits="userSpaceOnUse" gradientTransform="rotate(151.643 174.846 281.826) scale(67.3269)">
      <stop stop-color="#F4F1FF"/>
      <stop offset="1" stop-color="#D1BDE5"/>
    </radialGradient>
    <radialGradient id="y" cx="0" cy="0" r="1" gradientUnits="userSpaceOnUse" gradientTransform="rotate(-61.702 333.702 -441.588) scale(34.063 61.4731)">
      <stop stop-color="#F4BAB3"/>
      <stop offset=".77" stop-color="#8D6FC7"/>
      <stop offset=".96" stop-color="#B695E5"/>
    </radialGradient>
    <radialGradient id="z" cx="0" cy="0" r="1" gradientUnits="userSpaceOnUse" gradientTransform="matrix(4.34047 -8.06181 7.1924 3.87239 535.84 52.371)">
      <stop offset=".02" stop-color="#AB5E75"/>
      <stop offset=".25" stop-color="#9F577B"/>
      <stop offset=".67" stop-color="#7F458C"/>
      <stop offset=".99" stop-color="#61349C"/>
    </radialGradient>
    <radialGradient id="B" cx="0" cy="0" r="1" gradientUnits="userSpaceOnUse" gradientTransform="rotate(-61.702 379.724 -462.636) scale(16.1744 29.336)">
      <stop offset=".02" stop-color="#8881BC"/>
      <stop offset=".29" stop-color="#8375B7"/>
      <stop offset=".77" stop-color="#7555AA"/>
      <stop offset=".99" stop-color="#6D43A3"/>
    </radialGradient>
    <radialGradient id="C" cx="0" cy="0" r="1" gradientUnits="userSpaceOnUse" gradientTransform="matrix(8.15331 -15.14361 14.99516 8.07339 567.39 69.577)">
      <stop offset=".02" stop-color="#8881BC"/>
      <stop offset=".29" stop-color="#8375B7"/>
      <stop offset=".77" stop-color="#7555AA"/>
      <stop offset=".99" stop-color="#6D43A3"/>
    </radialGradient>
    <radialGradient id="D" cx="0" cy="0" r="1" gradientUnits="userSpaceOnUse" gradientTransform="rotate(-61.702 328.664 -431.412) scale(21.3977 35.3445)">
      <stop offset=".02" stop-color="#725EB0"/>
      <stop offset=".38" stop-color="#6D52AA"/>
      <stop offset=".99" stop-color="#61349C"/>
    </radialGradient>
    <radialGradient id="F" cx="0" cy="0" r="1" gradientUnits="userSpaceOnUse" gradientTransform="matrix(3.0121 -5.59456 10.14699 5.46313 628.83 102.43)">
      <stop offset=".02" stop-color="#725EB0"/>
      <stop offset=".38" stop-color="#6D52AA"/>
      <stop offset=".99" stop-color="#61349C"/>
    </radialGradient>
    <radialGradient id="G" cx="0" cy="0" r="1" gradientUnits="userSpaceOnUse" gradientTransform="matrix(5.55093 -10.31006 10.20889 5.49646 548.011 58.98)">
      <stop offset=".02" stop-color="#8881BC"/>
      <stop offset=".29" stop-color="#8375B7"/>
      <stop offset=".77" stop-color="#7555AA"/>
      <stop offset=".99" stop-color="#6D43A3"/>
    </radialGradient>
    <radialGradient id="I" cx="0" cy="0" r="1" gradientUnits="userSpaceOnUse" gradientTransform="matrix(.2995 -.55629 .55083 .29657 595.853 85.627)">
      <stop offset=".02" stop-color="#8881BC"/>
      <stop offset=".29" stop-color="#8375B7"/>
      <stop offset=".77" stop-color="#7555AA"/>
      <stop offset="1" stop-color="#6D43A3"/>
    </radialGradient>
    <radialGradient id="K" cx="0" cy="0" r="1" gradientUnits="userSpaceOnUse" gradientTransform="matrix(.2995 -.55629 .55083 .29657 592.409 83.772)">
      <stop offset=".02" stop-color="#8881BC"/>
      <stop offset=".29" stop-color="#8375B7"/>
      <stop offset=".77" stop-color="#7555AA"/>
      <stop offset="1" stop-color="#6D43A3"/>
    </radialGradient>
    <radialGradient id="L" cx="0" cy="0" r="1" gradientUnits="userSpaceOnUse" gradientTransform="matrix(.2995 -.55629 .55083 .29657 562.695 82.742)">
      <stop stop-color="#F4BAB3"/>
      <stop offset="1" stop-color="#8D6FC7"/>
    </radialGradient>
    <radialGradient id="M" cx="0" cy="0" r="1" gradientUnits="userSpaceOnUse" gradientTransform="matrix(.2995 -.55629 .55083 .29657 553.483 76.188)">
      <stop stop-color="#F4BAB3"/>
      <stop offset="1" stop-color="#8D6FC7"/>
    </radialGradient>
    <radialGradient id="N" cx="0" cy="0" r="1" gradientUnits="userSpaceOnUse" gradientTransform="matrix(.2995 -.55629 .55083 .29657 574.047 80.344)">
      <stop stop-color="#F4BAB3"/>
      <stop offset="1" stop-color="#8D6FC7"/>
    </radialGradient>
    <radialGradient id="O" cx="0" cy="0" r="1" gradientUnits="userSpaceOnUse" gradientTransform="matrix(.2995 -.55629 .55083 .29657 580.766 69.882)">
      <stop stop-color="#F4BAB3"/>
      <stop offset="1" stop-color="#8D6FC7"/>
    </radialGradient>
    <radialGradient id="P" cx="0" cy="0" r="1" gradientUnits="userSpaceOnUse" gradientTransform="matrix(.2995 -.55629 .55083 .29657 578.232 58.986)">
      <stop stop-color="#F4BAB3"/>
      <stop offset="1" stop-color="#8D6FC7"/>
    </radialGradient>
    <radialGradient id="Q" cx="0" cy="0" r="1" gradientUnits="userSpaceOnUse" gradientTransform="matrix(.2995 -.55629 .55083 .29657 565.253 53.459)">
      <stop stop-color="#F4BAB3"/>
      <stop offset="1" stop-color="#8D6FC7"/>
    </radialGradient>
    <radialGradient id="R" cx="0" cy="0" r="1" gradientUnits="userSpaceOnUse" gradientTransform="matrix(.2995 -.55629 .55083 .29657 555.886 55.58)">
      <stop stop-color="#F4BAB3"/>
      <stop offset="1" stop-color="#8D6FC7"/>
    </radialGradient>
    <radialGradient id="S" cx="0" cy="0" r="1" gradientUnits="userSpaceOnUse" gradientTransform="matrix(.2995 -.55629 .55083 .29657 549.85 64.39)">
      <stop stop-color="#F4BAB3"/>
      <stop offset="1" stop-color="#8D6FC7"/>
    </radialGradient>
    <radialGradient id="Z" cx="0" cy="0" r="1" gradientUnits="userSpaceOnUse" gradientTransform="matrix(.67531 -5.34143 5.275 .66691 604.135 88.035)">
      <stop stop-color="#003CEE"/>
      <stop offset=".06" stop-color="#0036D6"/>
      <stop offset=".2" stop-color="#00289E"/>
      <stop offset=".34" stop-color="#001C6D"/>
      <stop offset=".48" stop-color="#001246"/>
      <stop offset=".62" stop-color="#000A27"/>
      <stop offset=".75" stop-color="#000412"/>
      <stop offset=".88" stop-color="#000104"/>
      <stop offset="1"/>
    </radialGradient>
    <radialGradient id="aa" cx="0" cy="0" r="1" gradientUnits="userSpaceOnUse" gradientTransform="matrix(.5388 -4.26168 4.20868 .5321 572.812 46.376)">
      <stop stop-color="#FF9A00"/>
      <stop offset=".09" stop-color="#D68100"/>
      <stop offset=".23" stop-color="#9E5F00"/>
      <stop offset=".36" stop-color="#6E4200"/>
      <stop offset=".5" stop-color="#462A00"/>
      <stop offset=".63" stop-color="#271800"/>
      <stop offset=".76" stop-color="#120B00"/>
      <stop offset=".89" stop-color="#040300"/>
      <stop offset="1"/>
    </radialGradient>
    <radialGradient id="ab" cx="0" cy="0" r="1" gradientUnits="userSpaceOnUse" gradientTransform="matrix(.5388 -4.26168 4.20868 .5321 536.693 52.922)">
      <stop stop-color="#FF9A00"/>
      <stop offset=".09" stop-color="#D68100"/>
      <stop offset=".23" stop-color="#9E5F00"/>
      <stop offset=".36" stop-color="#6E4200"/>
      <stop offset=".5" stop-color="#462A00"/>
      <stop offset=".63" stop-color="#271800"/>
      <stop offset=".76" stop-color="#120B00"/>
      <stop offset=".89" stop-color="#040300"/>
      <stop offset="1"/>
    </radialGradient>
    <radialGradient id="ac" cx="0" cy="0" r="1" gradientUnits="userSpaceOnUse" gradientTransform="matrix(.27846 -2.2025 2.17512 .275 551.257 86.054)">
      <stop stop-color="#FF9A00"/>
      <stop offset=".09" stop-color="#D68100"/>
      <stop offset=".23" stop-color="#9E5F00"/>
      <stop offset=".36" stop-color="#6E4200"/>
      <stop offset=".5" stop-color="#462A00"/>
      <stop offset=".63" stop-color="#271800"/>
      <stop offset=".76" stop-color="#120B00"/>
      <stop offset=".89" stop-color="#040300"/>
      <stop offset="1"/>
    </radialGradient>
    <radialGradient id="ad" cx="0" cy="0" r="1" gradientUnits="userSpaceOnUse" gradientTransform="matrix(.26034 -2.05917 2.03357 .2571 609.889 77.557)">
      <stop stop-color="#003CEE"/>
      <stop offset=".06" stop-color="#0036D6"/>
      <stop offset=".2" stop-color="#00289E"/>
      <stop offset=".34" stop-color="#001C6D"/>
      <stop offset=".48" stop-color="#001246"/>
      <stop offset=".62" stop-color="#000A27"/>
      <stop offset=".75" stop-color="#000412"/>
      <stop offset=".88" stop-color="#000104"/>
      <stop offset="1"/>
    </radialGradient>
    <radialGradient id="ae" cx="0" cy="0" r="1" gradientUnits="userSpaceOnUse" gradientTransform="matrix(.26034 -2.05917 2.03356 .2571 599.009 101.965)">
      <stop stop-color="#003CEE"/>
      <stop offset=".06" stop-color="#0036D6"/>
      <stop offset=".2" stop-color="#00289E"/>
      <stop offset=".34" stop-color="#001C6D"/>
      <stop offset=".48" stop-color="#001246"/>
      <stop offset=".62" stop-color="#000A27"/>
      <stop offset=".75" stop-color="#000412"/>
      <stop offset=".88" stop-color="#000104"/>
      <stop offset="1"/>
    </radialGradient>
    <clipPath id="u">
      <path fill="#fff" d="M521 73.112 545.826 27l135.54 72.974-24.827 46.112z"/>
    </clipPath>
  </defs>
</svg>
